<?xml version="1.0" encoding="UTF-8" standalone="no"?>
<!-- Created with Inkscape (http://www.inkscape.org/) -->

<svg
   xmlns:dc="http://purl.org/dc/elements/1.1/"
   xmlns:cc="http://creativecommons.org/ns#"
   xmlns:rdf="http://www.w3.org/1999/02/22-rdf-syntax-ns#"
   xmlns:svg="http://www.w3.org/2000/svg"
   xmlns="http://www.w3.org/2000/svg"
   xmlns:sodipodi="http://sodipodi.sourceforge.net/DTD/sodipodi-0.dtd"
   xmlns:inkscape="http://www.inkscape.org/namespaces/inkscape"
   width="67.488098mm"
   height="110.28111mm"
   viewBox="0 0 239.13106 390.75982"
   id="svg3590"
   version="1.1"
   inkscape:version="0.91 r13725"
   sodipodi:docname="hunter-female-outline.svg">
  <defs
     id="defs3592" />
  <sodipodi:namedview
     id="base"
     pagecolor="#ffffff"
     bordercolor="#666666"
     borderopacity="1.0"
     inkscape:pageopacity="0.0"
     inkscape:pageshadow="2"
     inkscape:zoom="0.98994949"
     inkscape:cx="211.3289"
     inkscape:cy="112.13224"
     inkscape:document-units="px"
     inkscape:current-layer="layer1"
     showgrid="false"
     fit-margin-top="0"
     fit-margin-left="0"
     fit-margin-right="0"
     fit-margin-bottom="0"
     inkscape:window-width="1440"
     inkscape:window-height="800"
     inkscape:window-x="0"
     inkscape:window-y="0"
     inkscape:window-maximized="1" />
  <metadata
     id="metadata3595">
    <rdf:RDF>
      <cc:Work
         rdf:about="">
        <dc:format>image/svg+xml</dc:format>
        <dc:type
           rdf:resource="http://purl.org/dc/dcmitype/StillImage" />
        <dc:title></dc:title>
      </cc:Work>
    </rdf:RDF>
  </metadata>
  <g
     inkscape:label="Layer 1"
     inkscape:groupmode="layer"
     id="layer1"
     transform="translate(-296.51862,-141.67715)">
    <g
       id="g3706">
      <path
         style="fill:#090909"
         d="m 461.56217,531.59153 c -4.14075,-0.98301 -6.25616,-2.75045 -6.25616,-5.2271 0,-1.65421 -0.46417,-1.85506 -3,-1.2981 -2.52234,0.554 -3,0.3525 -3,-1.26556 0,-1.05845 -0.7875,-2.5937 -1.75,-3.41165 -3.13649,-2.66547 -12.49517,-6.02815 -20.70836,-7.44076 -11.78947,-2.02771 -13.34709,-4.4815 -9.45244,-14.89088 2.97371,-7.94795 2.33535,-8.90766 -5.35662,-8.05317 -3.42792,0.38081 -9.57983,1.56305 -13.67092,2.6272 -4.09108,1.06415 -10.84108,1.9706 -15,2.01434 -13.61744,0.14319 -23.91876,1.349 -25.56187,2.99211 -0.9354,0.93541 -1.91066,4.76295 -2.47551,9.71549 -0.51262,4.4946 -1.37648,9.00246 -1.91969,10.01746 -2.31145,4.31897 -28.51317,12.78755 -33.56577,10.84869 -2.24551,-0.86168 -1.9827,-10.07857 0.43954,-15.41508 1.06393,-2.34399 4.99155,-7.43202 8.72803,-11.30672 3.73649,-3.8747 6.79361,-7.58189 6.79361,-8.23819 0,-0.77098 -2.06192,-1.24541 -5.82624,-1.34059 -4.5664,-0.11546 -6.35322,-0.64238 -8.26325,-2.43676 -1.88033,-1.76648 -2.70808,-2.01836 -3.62375,-1.10269 -1.87183,1.87182 -3.79751,1.42559 -8.90372,-2.06324 -5.61455,-3.83616 -6.88304,-6.17138 -6.88304,-12.67133 0,-6.5435 2.22173,-12.36416 6.84356,-17.92932 6.84011,-8.23618 28.45038,-42.52127 40.82197,-64.76478 9.731,-17.49586 14.50488,-30.26939 12.30382,-32.9215 -1.62928,-1.96317 -2.61596,-1.8509 -6.2072,0.7063 -2.7887,1.98573 -3.43664,2.06591 -7.65437,0.94725 -2.53428,-0.67217 -7.02671,-2.32432 -9.98317,-3.67145 -3.9491,-1.79943 -6.93498,-2.41408 -11.25317,-2.31647 -4.72909,0.10691 -6.61003,-0.35261 -9.62461,-2.3513 -9.30266,-6.16772 -15.93478,-16.08618 -18.73406,-28.01713 -2.15908,-9.20234 -3.02971,-28.12909 -1.59905,-34.76236 0.65217,-3.02385 1.6005,-8.74588 2.10739,-12.71562 0.50688,-3.96974 1.36017,-8.01974 1.89618,-9 0.53602,-0.98026 1.95963,-4.93229 3.16358,-8.78229 1.20395,-3.85 5.45597,-15.775 9.44893,-26.5 3.99296,-10.725 7.80377,-21.52087 8.46846,-23.99083 1.3555,-5.03698 2.72843,-7.18173 11.69697,-18.2726 6.97059,-8.62014 9.51547,-13.06881 11.29361,-19.74219 3.18467,-11.95219 28.04282,-25.78267 49.56662,-27.57768 7.34917,-0.6129 8.42647,-0.45619 12.97945,1.88811 2.7308,1.40606 7.21509,4.44206 9.96509,6.74667 2.75,2.3046 8.6708,5.88747 13.15732,7.96193 4.48653,2.07445 8.64903,4.69049 9.25,5.81342 0.61491,1.14896 1.09268,7.25277 1.09268,13.95954 0,13.73616 -0.90811,15.91496 -9.2661,22.23194 -2.59544,1.96163 -6.00264,5.5725 -7.57154,8.02415 -1.56891,2.45165 -5.17227,6.39683 -8.00746,8.76707 -4.28608,3.58318 -5.1549,4.86326 -5.1549,7.59501 0,3.24475 1.83925,5.70602 5.13116,6.86647 0.90457,0.31888 3.27039,-0.53887 5.31111,-1.92557 3.01143,-2.04632 4.39015,-2.3806 7.5894,-1.84009 4.23518,0.71553 8.33441,3.44163 10.08016,6.7036 1.15541,2.15892 4.88817,16.91303 4.88817,19.32102 0,0.7718 -2.025,3.68331 -4.5,6.47003 -2.475,2.78672 -4.4843,5.83924 -4.46511,6.78338 0.0947,4.66079 2.95018,17.2642 4.41946,19.50661 2.4147,3.6853 7.99226,5.51145 19.18867,6.28259 l 9.87057,0.67983 4.49321,-3.41946 c 2.47126,-1.88071 5.23521,-4.98337 6.14211,-6.89481 0.90691,-1.91144 3.92513,-5.60448 6.70716,-8.20674 l 5.05825,-4.7314 11.06518,0 11.06519,0 4.55443,4.19813 c 5.7292,5.28099 7.00042,7.76907 9.98922,19.55126 1.66227,6.55287 2.41166,12.29188 2.41166,18.46906 0,8.01218 -0.48872,10.4097 -4.6113,22.62177 -3.10072,9.18506 -5.8889,15.46149 -8.51137,19.15978 -11.47167,16.17772 -20.47946,30.34539 -26.4538,41.60716 l -6.68733,12.60578 0.53363,17.64353 c 0.82177,27.17005 4.57439,38.27151 17.56375,51.95915 5.68975,5.99562 8.12777,7.70114 16.64104,11.64129 11.01001,5.0957 14.10356,7.44788 16.16768,12.29309 1.78411,4.18792 0.21363,8.1937 -5.27592,13.45713 -6.17064,5.91649 -10.18333,6.84274 -33.92106,7.83003 -11.58007,0.48164 -21.81757,1.16846 -22.75,1.52626 -2.47408,0.9494 -2.07293,2.9435 0.86107,4.28032 1.40601,0.64062 2.27945,1.61285 1.94098,2.16051 -0.70778,1.14521 -9.45126,1.15807 -14.24121,0.0209 z m 47.16205,-19.63219 c 2.09792,-0.80505 2.01119,-3.70486 -0.16821,-5.62424 -0.9625,-0.84767 -5.44021,-3.33695 -9.95047,-5.53173 -10.19999,-4.96354 -15.04867,-8.75845 -19.40356,-15.18658 -1.86778,-2.75699 -4.09801,-5.2494 -4.95606,-5.5387 -0.85805,-0.28929 -4.44286,0.64539 -7.96624,2.07707 -4.1542,1.688 -9.71592,2.91619 -15.82144,3.49383 -9.25469,0.87558 -12.15223,1.92884 -12.15223,4.41734 0,2.18855 3.10847,3.94873 9.14967,5.18103 6.64419,1.35529 16.05594,5.8498 23.18404,11.07136 2.65854,1.94746 6.48354,4.13011 8.5,4.85033 3.75347,1.34063 26.56253,1.94993 29.5845,0.79029 z m -38.0383,-128.89301 c 4.842,-8.8 9.42322,-17.125 10.18047,-18.5 0.75726,-1.375 2.06449,-4.23894 2.90497,-6.36432 1.40725,-3.55864 11.59127,-20.93309 18.54323,-31.63568 1.60765,-2.475 3.6134,-7.18204 4.45721,-10.4601 1.7673,-6.8656 2.03238,-17.11398 0.46768,-18.08102 -1.55345,-0.96009 -1.82768,-0.40434 -3.02391,6.12831 -2.08981,11.41255 -8.17845,19.12211 -22.74682,28.8025 -13.4293,8.92349 -21.04807,12.37936 -31.11471,14.11358 -5.19858,0.89559 -9.81108,1.85028 -10.25,2.12155 -0.43891,0.27127 -0.79067,1.70416 -0.78167,3.1842 0.024,3.94348 17.40879,71.99294 19.59249,76.69098 l 1.85925,4 0.55408,-17 0.55408,-17 8.80365,-16 z m -103.92701,-51.75 c 0.74297,-1.7875 1.86046,-7.46394 2.48332,-12.61431 1.3163,-10.88443 2.91052,-15.25597 6.93439,-19.01482 3.34267,-3.12252 5.71567,-12.10542 4.59413,-17.3909 -1.41805,-6.68285 -6.61528,-18.72997 -8.08027,-18.72997 -2.48123,0 -10.72085,8.49988 -14.606,15.06735 -3.89773,6.58873 -9.78786,28.08345 -9.76909,35.6501 0.0129,5.19528 4.90385,13.3903 10.2122,17.11097 5.52001,3.86903 6.59484,3.85879 8.23132,-0.0784 z m 86.0471,-6.18673 c 13.65051,-3.63504 24.03464,-8.36196 22.26256,-10.13405 -1.32104,-1.32103 -8.88658,-2.40047 -21.31278,-3.04087 -13.53891,-0.69774 -17.44978,0.0187 -17.44978,3.19649 0,0.83297 -0.71162,2.8906 -1.58138,4.57252 -0.9019,1.74409 -1.32338,4.08595 -0.98094,5.45034 0.5284,2.10532 1.16795,2.3899 5.33137,2.37226 2.60202,-0.011 8.78095,-1.09854 13.73095,-2.41669 z m -123.39353,-6.56852 c 0.3818,-1.37211 0.76734,-7.44475 0.85677,-13.49475 0.0894,-6.05 0.51764,-14.71356 0.95158,-19.25236 l 0.78898,-8.25236 7.49163,-9.74764 c 8.10131,-10.5409 9.80457,-13.26517 9.80457,-15.6819 0,-2.99745 -2.72089,-1.52613 -8.66249,4.68426 -8.76504,9.16156 -16.05009,22.48942 -19.32295,35.351 -1.04746,4.11625 -0.98152,6.337 0.4127,13.899 2.30052,12.47767 3.42381,15.67533 5.37456,15.29965 0.88577,-0.17058 1.92286,-1.43279 2.30465,-2.8049 z m 55.64353,-88.98379 c 3.73234,-2.27565 4.06813,-3.96059 1.29029,-6.47449 -2.30415,-2.08523 -5.44682,-1.57773 -9.37781,1.51438 -3.08367,2.42562 -3.3943,4.42353 -0.91248,5.86905 2.66563,1.55259 5.41884,1.27454 9,-0.90894 z"
         id="path3708"
         inkscape:connector-curvature="0" />
    </g>
  </g>
</svg>
