solid untitled
facet normal -1.0 8.22490224076465e-016 1.52655665885959e-016
outer loop
vertex 16.789583926605 40.7602926478743 0.0724277998537903
vertex 16.789583926605 37.7602926478743 3.07242779985379
vertex 16.789583926605 40.7602926478743 3.07242779985379
endloop
endfacet
facet normal -1.0 8.22490224076465e-016 1.52655665885959e-016
outer loop
vertex 16.789583926605 37.7602926478743 3.07242779985379
vertex 16.789583926605 40.7602926478743 0.0724277998537903
vertex 16.789583926605 37.7602926478743 0.0724277998537928
endloop
endfacet
facet normal -8.22490224076465e-016 -1.0 8.22490224076476e-016
outer loop
vertex 63.7895839266056 110.760292647874 0.0724277998531548
vertex 16.7895839266056 110.760292647874 3.07242779985316
vertex 16.7895839266056 110.760292647874 0.0724277998531622
endloop
endfacet
facet normal -8.22490224076465e-016 -1.0 8.22490224076476e-016
outer loop
vertex 16.7895839266056 110.760292647874 3.07242779985316
vertex 63.7895839266056 110.760292647874 0.0724277998531548
vertex 63.7895839266056 110.760292647874 3.07242779985316
endloop
endfacet
facet normal -2.90712979542946e-015 -6.75604863326765e-015 -1.0
outer loop
vertex 63.7895839266056 40.7602926478744 0.0724277998532122
vertex 65.4905458209289 50.5102926478744 0.0724277998532129
vertex 66.7895839266056 49.7602926478744 0.0724277998532147
endloop
endfacet
facet normal -2.90712979542946e-015 -6.75604863326765e-015 -1.0
outer loop
vertex 65.4905458209289 50.5102926478744 0.0724277998532129
vertex 63.7895839266056 40.7602926478744 0.0724277998532122
vertex 63.7895839266056 110.760292647874 0.0724277998531548
endloop
endfacet
facet normal -2.90712979542946e-015 -6.75604863326765e-015 -1.0
outer loop
vertex 65.4905458209289 50.5102926478744 0.0724277998532129
vertex 63.7895839266056 110.760292647874 0.0724277998531548
vertex 65.4905458209289 52.0102926478744 0.0724277998532027
endloop
endfacet
facet normal -2.90712979542946e-015 -6.75604863326765e-015 -1.0
outer loop
vertex 65.4905458209289 52.0102926478744 0.0724277998532027
vertex 63.7895839266056 110.760292647874 0.0724277998531548
vertex 66.7895839266056 52.7602926478744 0.0724277998531939
endloop
endfacet
facet normal -2.90712979542946e-015 -6.75604863326765e-015 -1.0
outer loop
vertex 66.7895839266056 52.7602926478744 0.0724277998531939
vertex 63.7895839266056 110.760292647874 0.0724277998531548
vertex 65.490545820929 99.5102926478742 0.0724277998531787
endloop
endfacet
facet normal -2.90712979542946e-015 -6.75604863326765e-015 -1.0
outer loop
vertex 66.7895839266056 52.7602926478744 0.0724277998531939
vertex 65.490545820929 99.5102926478742 0.0724277998531787
vertex 66.7895839266056 98.7602926478742 0.0724277998531805
endloop
endfacet
facet normal -2.90712979542946e-015 -6.75604863326765e-015 -1.0
outer loop
vertex 65.490545820929 99.5102926478742 0.0724277998531787
vertex 63.7895839266056 110.760292647874 0.0724277998531548
vertex 65.490545820929 101.010292647874 0.0724277998531682
endloop
endfacet
facet normal -2.90712979542946e-015 -6.75604863326765e-015 -1.0
outer loop
vertex 65.490545820929 101.010292647874 0.0724277998531682
vertex 63.7895839266056 110.760292647874 0.0724277998531548
vertex 66.7895839266056 101.760292647874 0.0724277998531597
endloop
endfacet
facet normal -2.90712979542946e-015 -6.75604863326765e-015 -1.0
outer loop
vertex 16.7895839266056 113.760292647874 0.0724277998531597
vertex 63.7895839266056 110.760292647874 0.0724277998531548
vertex 16.7895839266056 110.760292647874 0.0724277998531622
endloop
endfacet
facet normal -2.90712979542946e-015 -6.75604863326765e-015 -1.0
outer loop
vertex 63.7895839266056 110.760292647874 0.0724277998531548
vertex 16.7895839266056 113.760292647874 0.0724277998531597
vertex 69.7895839266056 113.760292647874 0.0724277998531703
endloop
endfacet
facet normal -2.90712979542946e-015 -6.75604863326765e-015 -1.0
outer loop
vertex 69.789583926605 37.7602926478742 0.0724277998538033
vertex 68.0886220322822 50.5102926478744 0.0724277998532055
vertex 69.7895839266056 113.760292647874 0.0724277998531703
endloop
endfacet
facet normal -2.90712979542946e-015 -6.75604863326765e-015 -1.0
outer loop
vertex 68.0886220322822 50.5102926478744 0.0724277998532055
vertex 69.789583926605 37.7602926478742 0.0724277998538033
vertex 63.7895839266056 40.7602926478744 0.0724277998532122
endloop
endfacet
facet normal -2.90712979542946e-015 -6.75604863326765e-015 -1.0
outer loop
vertex 63.7895839266056 40.7602926478744 0.0724277998532122
vertex 69.789583926605 37.7602926478742 0.0724277998538033
vertex 16.789583926605 37.7602926478743 0.0724277998537928
endloop
endfacet
facet normal -2.90712979542946e-015 -6.75604863326765e-015 -1.0
outer loop
vertex 63.7895839266056 40.7602926478744 0.0724277998532122
vertex 16.789583926605 37.7602926478743 0.0724277998537928
vertex 16.789583926605 40.7602926478743 0.0724277998537903
endloop
endfacet
facet normal -2.90712979542946e-015 -6.75604863326765e-015 -1.0
outer loop
vertex 68.0886220322822 50.5102926478744 0.0724277998532055
vertex 63.7895839266056 40.7602926478744 0.0724277998532122
vertex 66.7895839266056 49.7602926478744 0.0724277998532147
endloop
endfacet
facet normal -2.90712979542946e-015 -6.75604863326765e-015 -1.0
outer loop
vertex 69.7895839266056 113.760292647874 0.0724277998531703
vertex 68.0886220322822 50.5102926478744 0.0724277998532055
vertex 68.0886220322822 52.0102926478744 0.0724277998531953
endloop
endfacet
facet normal -2.90712979542946e-015 -6.75604863326765e-015 -1.0
outer loop
vertex 69.7895839266056 113.760292647874 0.0724277998531703
vertex 68.0886220322822 52.0102926478744 0.0724277998531953
vertex 66.7895839266056 52.7602926478744 0.0724277998531939
endloop
endfacet
facet normal -2.90712979542946e-015 -6.75604863326765e-015 -1.0
outer loop
vertex 69.7895839266056 113.760292647874 0.0724277998531703
vertex 66.7895839266056 52.7602926478744 0.0724277998531939
vertex 68.0886220322822 99.5102926478742 0.0724277998531713
endloop
endfacet
facet normal -2.90712979542946e-015 -6.75604863326765e-015 -1.0
outer loop
vertex 68.0886220322822 99.5102926478742 0.0724277998531713
vertex 66.7895839266056 52.7602926478744 0.0724277998531939
vertex 66.7895839266056 98.7602926478742 0.0724277998531805
endloop
endfacet
facet normal -2.90712979542946e-015 -6.75604863326765e-015 -1.0
outer loop
vertex 69.7895839266056 113.760292647874 0.0724277998531703
vertex 68.0886220322822 99.5102926478742 0.0724277998531713
vertex 68.0886220322823 101.010292647874 0.0724277998531608
endloop
endfacet
facet normal -2.90712979542946e-015 -6.75604863326765e-015 -1.0
outer loop
vertex 69.7895839266056 113.760292647874 0.0724277998531703
vertex 68.0886220322823 101.010292647874 0.0724277998531608
vertex 66.7895839266056 101.760292647874 0.0724277998531597
endloop
endfacet
facet normal -2.90712979542946e-015 -6.75604863326765e-015 -1.0
outer loop
vertex 69.7895839266056 113.760292647874 0.0724277998531703
vertex 66.7895839266056 101.760292647874 0.0724277998531597
vertex 63.7895839266056 110.760292647874 0.0724277998531548
endloop
endfacet
facet normal -1.0 8.22490224076465e-016 1.52655665885959e-016
outer loop
vertex 16.7895839266056 113.760292647874 0.0724277998531597
vertex 16.7895839266056 110.760292647874 3.07242779985316
vertex 16.7895839266056 113.760292647874 3.07242779985316
endloop
endfacet
facet normal -1.0 8.22490224076465e-016 1.52655665885959e-016
outer loop
vertex 16.7895839266056 110.760292647874 3.07242779985316
vertex 16.7895839266056 113.760292647874 0.0724277998531597
vertex 16.7895839266056 110.760292647874 0.0724277998531622
endloop
endfacet
facet normal 8.22490224076465e-016 1.0 -8.22490224076476e-016
outer loop
vertex 69.7895839266056 113.760292647874 3.07242779985317
vertex 16.7895839266056 113.760292647874 0.0724277998531597
vertex 16.7895839266056 113.760292647874 3.07242779985316
endloop
endfacet
facet normal 8.22490224076465e-016 1.0 -8.22490224076476e-016
outer loop
vertex 16.7895839266056 113.760292647874 0.0724277998531597
vertex 69.7895839266056 113.760292647874 3.07242779985317
vertex 69.7895839266056 113.760292647874 0.0724277998531703
endloop
endfacet
facet normal 5.22620349708921e-030 -1.0 8.2249022407647e-016
outer loop
vertex 16.7895839266049 -11.5045708037235 3.07242779985396
vertex 1.78958392660482 -11.5045708037235 0.0724277998538752
vertex 16.7895839266048 -11.5045708037235 0.0724277998538735
endloop
endfacet
facet normal 5.22620349708921e-030 -1.0 8.2249022407647e-016
outer loop
vertex 1.78958392660482 -11.5045708037235 0.0724277998538752
vertex 16.7895839266049 -11.5045708037235 3.07242779985396
vertex 4.78958392660484 -11.5045708037239 1.07242779985391
endloop
endfacet
facet normal 5.22620349708921e-030 -1.0 8.2249022407647e-016
outer loop
vertex 4.78958392660484 -11.5045708037239 1.07242779985391
vertex 16.7895839266049 -11.5045708037235 3.07242779985396
vertex 5.22259662849706 -11.5045708037239 1.32242779985391
endloop
endfacet
facet normal 5.22620349708921e-030 -1.0 8.2249022407647e-016
outer loop
vertex 5.22259662849706 -11.5045708037239 1.32242779985391
vertex 16.7895839266049 -11.5045708037235 3.07242779985396
vertex 5.22259662849706 -11.5045708037239 1.82242779985391
endloop
endfacet
facet normal 5.22620349708921e-030 -1.0 8.2249022407647e-016
outer loop
vertex 5.22259662849706 -11.5045708037239 1.82242779985391
vertex 16.7895839266049 -11.5045708037235 3.07242779985396
vertex 4.78958392660484 -11.5045708037239 2.07242779985391
endloop
endfacet
facet normal 5.22620349708921e-030 -1.0 8.2249022407647e-016
outer loop
vertex 1.78958392660482 -11.5045708037235 0.0724277998538752
vertex 4.35657122471262 -11.5045708037239 1.32242779985391
vertex 1.78958392660484 -11.5045708037235 3.07242779985396
endloop
endfacet
facet normal 5.22620349708921e-030 -1.0 8.2249022407647e-016
outer loop
vertex 4.35657122471262 -11.5045708037239 1.32242779985391
vertex 1.78958392660482 -11.5045708037235 0.0724277998538752
vertex 4.78958392660484 -11.5045708037239 1.07242779985391
endloop
endfacet
facet normal 5.22620349708921e-030 -1.0 8.2249022407647e-016
outer loop
vertex 1.78958392660484 -11.5045708037235 3.07242779985396
vertex 4.35657122471262 -11.5045708037239 1.32242779985391
vertex 4.35657122471262 -11.5045708037239 1.82242779985391
endloop
endfacet
facet normal 5.22620349708921e-030 -1.0 8.2249022407647e-016
outer loop
vertex 1.78958392660484 -11.5045708037235 3.07242779985396
vertex 4.35657122471262 -11.5045708037239 1.82242779985391
vertex 4.78958392660484 -11.5045708037239 2.07242779985391
endloop
endfacet
facet normal 5.22620349708921e-030 -1.0 8.2249022407647e-016
outer loop
vertex 1.78958392660484 -11.5045708037235 3.07242779985396
vertex 4.78958392660484 -11.5045708037239 2.07242779985391
vertex 16.7895839266049 -11.5045708037235 3.07242779985396
endloop
endfacet
facet normal 1.14309146943314e-015 -8.14265321835712e-016 -1.0
outer loop
vertex 10.7895839266049 117.495429196277 0.0724277998537631
vertex 7.78958392660483 -8.50457080372348 0.072427799853861
vertex 7.78958392660493 117.495429196277 0.0724277998537574
endloop
endfacet
facet normal 1.14309146943314e-015 -8.14265321835712e-016 -1.0
outer loop
vertex 13.789583926605 138.495429196277 0.0724277998537492
vertex 10.7895839266049 117.495429196277 0.0724277998537631
vertex 10.789583926605 138.495429196277 0.0724277998537458
endloop
endfacet
facet normal 1.14309146943314e-015 -8.14265321835712e-016 -1.0
outer loop
vertex 10.7895839266049 117.495429196277 0.0724277998537631
vertex 13.789583926605 138.495429196277 0.0724277998537492
vertex 13.7895839266046 117.495429196277 0.0724277998543981
endloop
endfacet
facet normal 1.14309146943314e-015 -8.14265321835712e-016 -1.0
outer loop
vertex 7.78958392660483 -8.50457080372348 0.072427799853861
vertex 1.78958392660482 -11.5045708037235 0.0724277998538752
vertex 1.78958392660482 -8.50457080372348 0.0724277998538727
endloop
endfacet
facet normal 1.14309146943314e-015 -8.14265321835712e-016 -1.0
outer loop
vertex 1.78958392660482 -11.5045708037235 0.0724277998538752
vertex 7.78958392660483 -8.50457080372348 0.072427799853861
vertex 16.7895839266048 -11.5045708037235 0.0724277998538735
endloop
endfacet
facet normal 1.14309146943314e-015 -8.14265321835712e-016 -1.0
outer loop
vertex 16.7895839266048 -11.5045708037235 0.0724277998538735
vertex 7.78958392660483 -8.50457080372348 0.072427799853861
vertex 10.7895839266049 117.495429196277 0.0724277998537631
endloop
endfacet
facet normal 1.14309146943314e-015 -8.14265321835712e-016 -1.0
outer loop
vertex 16.7895839266048 -11.5045708037235 0.0724277998538735
vertex 10.7895839266049 117.495429196277 0.0724277998537631
vertex 13.7895839266046 117.495429196277 0.0724277998543981
endloop
endfacet
facet normal 1.14309146943314e-015 -8.14265321835712e-016 -1.0
outer loop
vertex 16.7895839266048 -11.5045708037235 0.0724277998538735
vertex 13.7895839266046 117.495429196277 0.0724277998543981
vertex 16.7895839266046 117.495429196277 0.0724277998544005
endloop
endfacet
facet normal 8.22490224076465e-016 1.0 -8.22490224076476e-016
outer loop
vertex 10.789583926605 138.495429196277 1.57242779985379
vertex 13.789583926605 138.495429196277 0.0724277998537492
vertex 10.789583926605 138.495429196277 0.0724277998537458
endloop
endfacet
facet normal 8.22490224076465e-016 1.0 -8.22490224076476e-016
outer loop
vertex 13.789583926605 138.495429196277 0.0724277998537492
vertex 10.789583926605 138.495429196277 1.57242779985379
vertex 13.789583926605 138.495429196277 1.57242779985379
endloop
endfacet
facet normal -1.0 8.69873053491097e-016 3.10654246213133e-015
outer loop
vertex 7.78958392660496 138.495429196277 3.07242779985383
vertex 7.78958392660483 -8.50457080372348 0.072427799853861
vertex 7.78958392660483 -8.50457080372348 3.07242779985395
endloop
endfacet
facet normal -1.0 8.69873053491097e-016 3.10654246213133e-015
outer loop
vertex 7.78958392660483 -8.50457080372348 0.072427799853861
vertex 7.78958392660496 138.495429196277 3.07242779985383
vertex 7.78958392660494 117.495429196277 1.5724277998538
endloop
endfacet
facet normal -1.0 8.69873053491097e-016 3.10654246213133e-015
outer loop
vertex 7.78958392660494 117.495429196277 1.5724277998538
vertex 7.78958392660496 138.495429196277 3.07242779985383
vertex 7.78958392660496 138.495429196277 1.57242779985379
endloop
endfacet
facet normal -1.0 8.69873053491097e-016 3.10654246213133e-015
outer loop
vertex 7.78958392660493 117.495429196277 0.0724277998537574
vertex 7.78958392660483 -8.50457080372348 0.072427799853861
vertex 7.78958392660494 117.495429196277 1.5724277998538
endloop
endfacet
facet normal 1.0 1.19570189338373e-016 -6.56279076069561e-014
outer loop
vertex 16.7895839266046 117.495429196277 0.0724277998544005
vertex 16.7895839266049 -11.5045708037235 3.07242779985396
vertex 16.7895839266048 -11.5045708037235 0.0724277998538735
endloop
endfacet
facet normal 1.0 1.19570189338373e-016 -6.56279076069561e-014
outer loop
vertex 16.7895839266049 -11.5045708037235 3.07242779985396
vertex 16.7895839266046 117.495429196277 0.0724277998544005
vertex 16.7895839266046 117.495429196277 1.57242779985444
endloop
endfacet
facet normal 1.0 1.19570189338373e-016 -6.56279076069561e-014
outer loop
vertex 16.7895839266049 -11.5045708037235 3.07242779985396
vertex 16.7895839266046 117.495429196277 1.57242779985444
vertex 16.789583926605 138.495429196277 3.07242779985383
endloop
endfacet
facet normal 1.0 1.19570189338373e-016 -6.56279076069561e-014
outer loop
vertex 16.789583926605 138.495429196277 3.07242779985383
vertex 16.7895839266046 117.495429196277 1.57242779985444
vertex 16.789583926605 138.495429196277 1.57242779985379
endloop
endfacet
facet normal -1.04215251200874e-015 8.2602955738374e-016 1.0
outer loop
vertex 1.78958392660484 -11.5045708037235 3.07242779985396
vertex 7.78958392660483 -8.50457080372348 3.07242779985395
vertex 1.78958392660483 -8.50457080372348 3.07242779985396
endloop
endfacet
facet normal -1.04215251200874e-015 8.2602955738374e-016 1.0
outer loop
vertex 7.78958392660483 -8.50457080372348 3.07242779985395
vertex 1.78958392660484 -11.5045708037235 3.07242779985396
vertex 16.7895839266049 -11.5045708037235 3.07242779985396
endloop
endfacet
facet normal -1.04215251200874e-015 8.2602955738374e-016 1.0
outer loop
vertex 7.78958392660483 -8.50457080372348 3.07242779985395
vertex 16.7895839266049 -11.5045708037235 3.07242779985396
vertex 7.78958392660496 138.495429196277 3.07242779985383
endloop
endfacet
facet normal -1.04215251200874e-015 8.2602955738374e-016 1.0
outer loop
vertex 7.78958392660496 138.495429196277 3.07242779985383
vertex 16.7895839266049 -11.5045708037235 3.07242779985396
vertex 10.7895839266049 117.495429196277 3.07242779985384
endloop
endfacet
facet normal -1.04215251200874e-015 8.2602955738374e-016 1.0
outer loop
vertex 10.7895839266049 117.495429196277 3.07242779985384
vertex 16.7895839266049 -11.5045708037235 3.07242779985396
vertex 13.7895839266049 117.495429196277 3.07242779985385
endloop
endfacet
facet normal -1.04215251200874e-015 8.2602955738374e-016 1.0
outer loop
vertex 13.7895839266049 117.495429196277 3.07242779985385
vertex 16.7895839266049 -11.5045708037235 3.07242779985396
vertex 13.7895839266049 138.495429196277 3.07242779985383
endloop
endfacet
facet normal -1.04215251200874e-015 8.2602955738374e-016 1.0
outer loop
vertex 13.7895839266049 138.495429196277 3.07242779985383
vertex 16.7895839266049 -11.5045708037235 3.07242779985396
vertex 16.789583926605 138.495429196277 3.07242779985383
endloop
endfacet
facet normal -1.04215251200874e-015 8.2602955738374e-016 1.0
outer loop
vertex 10.7895839266049 138.495429196277 3.07242779985382
vertex 7.78958392660496 138.495429196277 3.07242779985383
vertex 10.7895839266049 117.495429196277 3.07242779985384
endloop
endfacet
facet normal 8.22490224076465e-016 1.0 -8.22490224076476e-016
outer loop
vertex 13.789583926605 138.495429196277 1.57242779985379
vertex 16.789583926605 138.495429196277 3.07242779985383
vertex 16.789583926605 138.495429196277 1.57242779985379
endloop
endfacet
facet normal 8.22490224076465e-016 1.0 -8.22490224076476e-016
outer loop
vertex 16.789583926605 138.495429196277 3.07242779985383
vertex 13.789583926605 138.495429196277 1.57242779985379
vertex 13.7895839266049 138.495429196277 3.07242779985383
endloop
endfacet
facet normal -1.0 8.22490224076451e-016 -1.69373774265102e-014
outer loop
vertex 13.7895839266049 138.495429196277 3.07242779985383
vertex 13.7895839266049 117.495429196277 1.57242779985381
vertex 13.7895839266049 117.495429196277 3.07242779985385
endloop
endfacet
facet normal -1.0 8.22490224076451e-016 -1.69373774265102e-014
outer loop
vertex 13.7895839266049 117.495429196277 1.57242779985381
vertex 13.7895839266049 138.495429196277 3.07242779985383
vertex 13.789583926605 138.495429196277 1.57242779985379
endloop
endfacet
facet normal -5.07001847912168e-015 2.34997206878983e-016 1.0
outer loop
vertex 13.7895839266049 117.495429196277 1.57242779985381
vertex 10.789583926605 138.495429196277 1.57242779985379
vertex 10.7895839266049 117.495429196277 1.57242779985378
endloop
endfacet
facet normal -5.07001847912168e-015 2.34997206878983e-016 1.0
outer loop
vertex 10.789583926605 138.495429196277 1.57242779985379
vertex 13.7895839266049 117.495429196277 1.57242779985381
vertex 13.789583926605 138.495429196277 1.57242779985379
endloop
endfacet
facet normal 8.22490224076465e-016 1.0 -8.22490224076476e-016
outer loop
vertex 10.7895839266049 117.495429196277 3.07242779985384
vertex 13.7895839266049 117.495429196277 1.57242779985381
vertex 10.7895839266049 117.495429196277 1.57242779985378
endloop
endfacet
facet normal 8.22490224076465e-016 1.0 -8.22490224076476e-016
outer loop
vertex 13.7895839266049 117.495429196277 1.57242779985381
vertex 10.7895839266049 117.495429196277 3.07242779985384
vertex 13.7895839266049 117.495429196277 3.07242779985385
endloop
endfacet
facet normal 1.0 -8.89632283184745e-016 9.41746680638261e-015
outer loop
vertex 10.789583926605 138.495429196277 1.57242779985379
vertex 10.7895839266049 117.495429196277 3.07242779985384
vertex 10.7895839266049 117.495429196277 1.57242779985378
endloop
endfacet
facet normal 1.0 -8.89632283184745e-016 9.41746680638261e-015
outer loop
vertex 10.7895839266049 117.495429196277 3.07242779985384
vertex 10.789583926605 138.495429196277 1.57242779985379
vertex 10.7895839266049 138.495429196277 3.07242779985382
endloop
endfacet
facet normal 8.22490224076465e-016 1.0 -8.22490224076476e-016
outer loop
vertex 7.78958392660496 138.495429196277 1.57242779985379
vertex 10.7895839266049 138.495429196277 3.07242779985382
vertex 10.789583926605 138.495429196277 1.57242779985379
endloop
endfacet
facet normal 8.22490224076465e-016 1.0 -8.22490224076476e-016
outer loop
vertex 10.7895839266049 138.495429196277 3.07242779985382
vertex 7.78958392660496 138.495429196277 1.57242779985379
vertex 7.78958392660496 138.495429196277 3.07242779985383
endloop
endfacet
facet normal 4.58244553414033e-015 1.0 6.697420396051e-015
outer loop
vertex 7.78958392660494 117.495429196277 1.5724277998538
vertex 10.7895839266049 117.495429196277 0.0724277998537631
vertex 7.78958392660493 117.495429196277 0.0724277998537574
endloop
endfacet
facet normal 4.58244553414033e-015 1.0 6.697420396051e-015
outer loop
vertex 10.7895839266049 117.495429196277 0.0724277998537631
vertex 7.78958392660494 117.495429196277 1.5724277998538
vertex 10.7895839266049 117.495429196277 1.57242779985378
endloop
endfacet
facet normal -1.0 8.89632283184747e-016 -1.89755618625513e-015
outer loop
vertex 10.789583926605 138.495429196277 1.57242779985379
vertex 10.7895839266049 117.495429196277 0.0724277998537631
vertex 10.7895839266049 117.495429196277 1.57242779985378
endloop
endfacet
facet normal -1.0 8.89632283184747e-016 -1.89755618625513e-015
outer loop
vertex 10.7895839266049 117.495429196277 0.0724277998537631
vertex 10.789583926605 138.495429196277 1.57242779985379
vertex 10.789583926605 138.495429196277 0.0724277998537458
endloop
endfacet
facet normal 3.38988096852227e-015 2.34997206878975e-016 1.0
outer loop
vertex 10.7895839266049 117.495429196277 1.57242779985378
vertex 7.78958392660496 138.495429196277 1.57242779985379
vertex 7.78958392660494 117.495429196277 1.5724277998538
endloop
endfacet
facet normal 3.38988096852227e-015 2.34997206878975e-016 1.0
outer loop
vertex 7.78958392660496 138.495429196277 1.57242779985379
vertex 10.7895839266049 117.495429196277 1.57242779985378
vertex 10.789583926605 138.495429196277 1.57242779985379
endloop
endfacet
facet normal 8.34240084420616e-015 1.0 -1.58623114643355e-014
outer loop
vertex 13.7895839266046 117.495429196277 0.0724277998543981
vertex 16.7895839266046 117.495429196277 1.57242779985444
vertex 16.7895839266046 117.495429196277 0.0724277998544005
endloop
endfacet
facet normal 8.34240084420616e-015 1.0 -1.58623114643355e-014
outer loop
vertex 16.7895839266046 117.495429196277 1.57242779985444
vertex 13.7895839266046 117.495429196277 0.0724277998543981
vertex 13.7895839266049 117.495429196277 1.57242779985381
endloop
endfacet
facet normal -1.05002580704415e-013 1.58539187069447e-014 1.0
outer loop
vertex 16.7895839266046 117.495429196277 1.57242779985444
vertex 13.789583926605 138.495429196277 1.57242779985379
vertex 13.7895839266049 117.495429196277 1.57242779985381
endloop
endfacet
facet normal -1.05002580704415e-013 1.58539187069447e-014 1.0
outer loop
vertex 13.789583926605 138.495429196277 1.57242779985379
vertex 16.7895839266046 117.495429196277 1.57242779985444
vertex 16.789583926605 138.495429196277 1.57242779985379
endloop
endfacet
facet normal 1.0 -8.42632841809125e-015 -1.05496167357441e-013
outer loop
vertex 13.789583926605 138.495429196277 0.0724277998537492
vertex 13.7895839266049 117.495429196277 1.57242779985381
vertex 13.7895839266046 117.495429196277 0.0724277998543981
endloop
endfacet
facet normal 1.0 -8.42632841809125e-015 -1.05496167357441e-013
outer loop
vertex 13.7895839266049 117.495429196277 1.57242779985381
vertex 13.789583926605 138.495429196277 0.0724277998537492
vertex 13.789583926605 138.495429196277 1.57242779985379
endloop
endfacet
facet normal -1.0 -8.22490224076473e-016 3.27238236508253e-015
outer loop
vertex 1.78958392660483 -8.50457080372348 3.07242779985396
vertex 1.78958392660482 -11.5045708037235 0.0724277998538752
vertex 1.78958392660484 -11.5045708037235 3.07242779985396
endloop
endfacet
facet normal -1.0 -8.22490224076473e-016 3.27238236508253e-015
outer loop
vertex 1.78958392660482 -11.5045708037235 0.0724277998538752
vertex 1.78958392660483 -8.50457080372348 3.07242779985396
vertex 1.78958392660482 -8.50457080372348 0.0724277998538727
endloop
endfacet
facet normal -8.22490224076474e-016 1.0 -2.6131017485446e-029
outer loop
vertex 1.78958392660482 -8.50457080372348 0.0724277998538727
vertex 4.35657122471261 -8.50457080372348 1.32242779985391
vertex 4.78958392660484 -8.50457080372348 1.07242779985391
endloop
endfacet
facet normal -8.22490224076474e-016 1.0 -2.6131017485446e-029
outer loop
vertex 4.35657122471261 -8.50457080372348 1.32242779985391
vertex 1.78958392660482 -8.50457080372348 0.0724277998538727
vertex 1.78958392660483 -8.50457080372348 3.07242779985396
endloop
endfacet
facet normal -8.22490224076474e-016 1.0 -2.6131017485446e-029
outer loop
vertex 4.35657122471261 -8.50457080372348 1.32242779985391
vertex 1.78958392660483 -8.50457080372348 3.07242779985396
vertex 4.35657122471262 -8.50457080372348 1.82242779985391
endloop
endfacet
facet normal -8.22490224076474e-016 1.0 -2.6131017485446e-029
outer loop
vertex 4.35657122471262 -8.50457080372348 1.82242779985391
vertex 1.78958392660483 -8.50457080372348 3.07242779985396
vertex 4.78958392660483 -8.50457080372348 2.07242779985391
endloop
endfacet
facet normal -8.22490224076474e-016 1.0 -2.6131017485446e-029
outer loop
vertex 4.78958392660483 -8.50457080372348 2.07242779985391
vertex 1.78958392660483 -8.50457080372348 3.07242779985396
vertex 7.78958392660483 -8.50457080372348 3.07242779985395
endloop
endfacet
facet normal -8.22490224076474e-016 1.0 -2.6131017485446e-029
outer loop
vertex 7.78958392660483 -8.50457080372348 0.072427799853861
vertex 5.22259662849705 -8.50457080372348 1.32242779985391
vertex 7.78958392660483 -8.50457080372348 3.07242779985395
endloop
endfacet
facet normal -8.22490224076474e-016 1.0 -2.6131017485446e-029
outer loop
vertex 5.22259662849705 -8.50457080372348 1.32242779985391
vertex 7.78958392660483 -8.50457080372348 0.072427799853861
vertex 4.78958392660484 -8.50457080372348 1.07242779985391
endloop
endfacet
facet normal -8.22490224076474e-016 1.0 -2.6131017485446e-029
outer loop
vertex 4.78958392660484 -8.50457080372348 1.07242779985391
vertex 7.78958392660483 -8.50457080372348 0.072427799853861
vertex 1.78958392660482 -8.50457080372348 0.0724277998538727
endloop
endfacet
facet normal -8.22490224076474e-016 1.0 -2.6131017485446e-029
outer loop
vertex 7.78958392660483 -8.50457080372348 3.07242779985395
vertex 5.22259662849705 -8.50457080372348 1.32242779985391
vertex 5.22259662849705 -8.50457080372348 1.82242779985391
endloop
endfacet
facet normal -8.22490224076474e-016 1.0 -2.6131017485446e-029
outer loop
vertex 7.78958392660483 -8.50457080372348 3.07242779985395
vertex 5.22259662849705 -8.50457080372348 1.82242779985391
vertex 4.78958392660483 -8.50457080372348 2.07242779985391
endloop
endfacet
facet normal -0.500000000000001 -5.04565867351936e-016 0.866025403784438
outer loop
vertex 4.78958392660484 -11.5045708037239 1.07242779985391
vertex 5.22259662849705 -8.50457080372348 1.32242779985391
vertex 4.78958392660484 -8.50457080372348 1.07242779985391
endloop
endfacet
facet normal -0.500000000000001 -5.04565867351936e-016 0.866025403784438
outer loop
vertex 5.22259662849705 -8.50457080372348 1.32242779985391
vertex 4.78958392660484 -11.5045708037239 1.07242779985391
vertex 5.22259662849706 -11.5045708037239 1.32242779985391
endloop
endfacet
facet normal 0.5 7.08079418327539e-016 0.866025403784439
outer loop
vertex 4.35657122471262 -11.5045708037239 1.32242779985391
vertex 4.78958392660484 -8.50457080372348 1.07242779985391
vertex 4.35657122471261 -8.50457080372348 1.32242779985391
endloop
endfacet
facet normal 0.5 7.08079418327539e-016 0.866025403784439
outer loop
vertex 4.78958392660484 -8.50457080372348 1.07242779985391
vertex 4.35657122471262 -11.5045708037239 1.32242779985391
vertex 4.78958392660484 -11.5045708037239 1.07242779985391
endloop
endfacet
facet normal 1.0 1.21264528567947e-015 -1.52655665885959e-016
outer loop
vertex 4.35657122471261 -8.50457080372348 1.32242779985391
vertex 4.35657122471262 -11.5045708037239 1.82242779985391
vertex 4.35657122471262 -11.5045708037239 1.32242779985391
endloop
endfacet
facet normal 1.0 1.21264528567947e-015 -1.52655665885959e-016
outer loop
vertex 4.35657122471262 -11.5045708037239 1.82242779985391
vertex 4.35657122471261 -8.50457080372348 1.32242779985391
vertex 4.35657122471262 -8.50457080372348 1.82242779985391
endloop
endfacet
facet normal 0.500000000000001 5.04565867351936e-016 -0.866025403784438
outer loop
vertex 4.78958392660483 -8.50457080372348 2.07242779985391
vertex 4.35657122471262 -11.5045708037239 1.82242779985391
vertex 4.35657122471262 -8.50457080372348 1.82242779985391
endloop
endfacet
facet normal 0.500000000000001 5.04565867351936e-016 -0.866025403784438
outer loop
vertex 4.35657122471262 -11.5045708037239 1.82242779985391
vertex 4.78958392660483 -8.50457080372348 2.07242779985391
vertex 4.78958392660484 -11.5045708037239 2.07242779985391
endloop
endfacet
facet normal -0.5 -7.0807941832754e-016 -0.866025403784439
outer loop
vertex 5.22259662849705 -8.50457080372348 1.82242779985391
vertex 4.78958392660484 -11.5045708037239 2.07242779985391
vertex 4.78958392660483 -8.50457080372348 2.07242779985391
endloop
endfacet
facet normal -0.5 -7.0807941832754e-016 -0.866025403784439
outer loop
vertex 4.78958392660484 -11.5045708037239 2.07242779985391
vertex 5.22259662849705 -8.50457080372348 1.82242779985391
vertex 5.22259662849706 -11.5045708037239 1.82242779985391
endloop
endfacet
facet normal -1.0 -1.21264528567947e-015 1.52655665885959e-016
outer loop
vertex 5.22259662849705 -8.50457080372348 1.82242779985391
vertex 5.22259662849706 -11.5045708037239 1.32242779985391
vertex 5.22259662849706 -11.5045708037239 1.82242779985391
endloop
endfacet
facet normal -1.0 -1.21264528567947e-015 1.52655665885959e-016
outer loop
vertex 5.22259662849706 -11.5045708037239 1.32242779985391
vertex 5.22259662849705 -8.50457080372348 1.82242779985391
vertex 5.22259662849705 -8.50457080372348 1.32242779985391
endloop
endfacet
facet normal 1.0 1.89536834590416e-014 -1.52655665885976e-016
outer loop
vertex 16.789583926605 37.7602926478743 0.0724277998537928
vertex 16.789583926605 37.7602926478743 3.07242779985379
vertex 16.789583926605 35.2648951945886 1.5724277998544
endloop
endfacet
facet normal -8.22490224076465e-016 -1.0 8.22490224076476e-016
outer loop
vertex 69.789583926605 37.7602926478742 0.0724277998538033
vertex 16.789583926605 37.7602926478743 3.07242779985379
vertex 16.789583926605 37.7602926478743 0.0724277998537928
endloop
endfacet
facet normal -8.22490224076465e-016 -1.0 8.22490224076476e-016
outer loop
vertex 16.789583926605 37.7602926478743 3.07242779985379
vertex 69.789583926605 37.7602926478742 0.0724277998538033
vertex 69.789583926605 37.7602926478742 3.0724277998538
endloop
endfacet
facet normal -2.83510159900449e-015 0.515192996979147 -0.857074195075108
outer loop
vertex 16.789583926605 37.7602926478743 3.07242779985379
vertex 69.7895839266049 35.2648951945892 1.57242779985437
vertex 16.789583926605 35.2648951945886 1.5724277998544
endloop
endfacet
facet normal -2.83510159900449e-015 0.515192996979147 -0.857074195075108
outer loop
vertex 69.7895839266049 35.2648951945892 1.57242779985437
vertex 16.789583926605 37.7602926478743 3.07242779985379
vertex 69.789583926605 37.7602926478742 3.0724277998538
endloop
endfacet
facet normal -2.38490050936715e-015 0.515192996979441 0.857074195074932
outer loop
vertex 69.7895839266049 35.2648951945892 1.57242779985437
vertex 16.789583926605 37.7602926478743 0.0724277998537928
vertex 16.789583926605 35.2648951945886 1.5724277998544
endloop
endfacet
facet normal -2.38490050936715e-015 0.515192996979441 0.857074195074932
outer loop
vertex 16.789583926605 37.7602926478743 0.0724277998537928
vertex 69.7895839266049 35.2648951945892 1.57242779985437
vertex 69.789583926605 37.7602926478742 0.0724277998538033
endloop
endfacet
facet normal -1.0 8.22490224076465e-016 1.52655665885959e-016
outer loop
vertex 63.7895839266056 110.760292647874 0.0724277998531548
vertex 63.7895839266056 40.7602926478744 3.07242779985321
vertex 63.7895839266056 65.5436318392961 3.07242779985319
endloop
endfacet
facet normal -1.0 8.22490224076465e-016 1.52655665885959e-016
outer loop
vertex 63.7895839266056 40.7602926478744 3.07242779985321
vertex 63.7895839266056 110.760292647874 0.0724277998531548
vertex 63.7895839266056 40.7602926478744 0.0724277998532122
endloop
endfacet
facet normal -2.05747554533412e-015 1.0 -8.22490224076478e-016
outer loop
vertex 63.7895839266056 40.7602926478744 3.07242779985321
vertex 16.789583926605 40.7602926478743 0.0724277998537903
vertex 16.789583926605 40.7602926478743 3.07242779985379
endloop
endfacet
facet normal -2.05747554533412e-015 1.0 -8.22490224076478e-016
outer loop
vertex 16.789583926605 40.7602926478743 0.0724277998537903
vertex 63.7895839266056 40.7602926478744 3.07242779985321
vertex 63.7895839266056 40.7602926478744 0.0724277998532122
endloop
endfacet
facet normal 1.0 -8.33276256339844e-015 6.11393651755357e-015
outer loop
vertex 69.789583926605 37.7602926478742 0.0724277998538033
vertex 69.7895839266056 113.760292647874 3.07242779985317
vertex 69.789583926605 37.7602926478742 3.0724277998538
endloop
endfacet
facet normal 1.0 -8.33276256339844e-015 6.11393651755357e-015
outer loop
vertex 69.7895839266056 113.760292647874 3.07242779985317
vertex 69.789583926605 37.7602926478742 0.0724277998538033
vertex 69.7895839266056 113.760292647874 0.0724277998531703
endloop
endfacet
facet normal 1.0 -9.86302676493278e-015 -1.52655665885951e-016
outer loop
vertex 69.789583926605 37.7602926478742 0.0724277998538033
vertex 69.789583926605 37.7602926478742 3.0724277998538
vertex 69.7895839266049 35.2648951945892 1.57242779985437
endloop
endfacet
facet normal -1.0 8.22490224076465e-016 1.52655665885959e-016
outer loop
vertex 63.7895839266056 110.760292647874 0.0724277998531548
vertex 63.7895839266056 65.5436318392961 3.07242779985319
vertex 63.7895839266056 110.760292647874 3.07242779985316
endloop
endfacet
facet normal -0.499999999999995 0.866025403784441 -6.37683681366937e-016
outer loop
vertex 68.0886220322822 99.5102926478742 3.07242779985313
vertex 66.7895839266056 98.7602926478742 0.0724277998531805
vertex 66.7895839266056 98.7602926478742 3.07242779985315
endloop
endfacet
facet normal -0.499999999999995 0.866025403784441 -6.37683681366937e-016
outer loop
vertex 66.7895839266056 98.7602926478742 0.0724277998531805
vertex 68.0886220322822 99.5102926478742 3.07242779985313
vertex 68.0886220322822 99.5102926478742 0.0724277998531713
endloop
endfacet
facet normal 0.499999999999995 -0.866025403784441 6.47797209284254e-016
outer loop
vertex 66.7895839266056 101.760292647874 0.0724277998531597
vertex 65.490545820929 101.010292647874 3.07242779985314
vertex 65.490545820929 101.010292647874 0.0724277998531682
endloop
endfacet
facet normal 0.499999999999995 -0.866025403784441 6.47797209284254e-016
outer loop
vertex 65.490545820929 101.010292647874 3.07242779985314
vertex 66.7895839266056 101.760292647874 0.0724277998531597
vertex 66.7895839266056 101.760292647874 3.07242779985313
endloop
endfacet
facet normal -0.500000000000005 -0.866025403784436 7.93831542997838e-016
outer loop
vertex 68.0886220322823 101.010292647874 0.0724277998531608
vertex 66.7895839266056 101.760292647874 3.07242779985313
vertex 66.7895839266056 101.760292647874 0.0724277998531597
endloop
endfacet
facet normal -0.500000000000005 -0.866025403784436 7.93831542997838e-016
outer loop
vertex 66.7895839266056 101.760292647874 3.07242779985313
vertex 68.0886220322823 101.010292647874 0.0724277998531608
vertex 68.0886220322823 101.010292647874 3.07242779985313
endloop
endfacet
facet normal -1.0 8.3424008442042e-015 1.52655665885953e-016
outer loop
vertex 68.0886220322823 101.010292647874 0.0724277998531608
vertex 68.0886220322822 99.5102926478742 3.07242779985313
vertex 68.0886220322823 101.010292647874 3.07242779985313
endloop
endfacet
facet normal -1.0 8.3424008442042e-015 1.52655665885953e-016
outer loop
vertex 68.0886220322822 99.5102926478742 3.07242779985313
vertex 68.0886220322823 101.010292647874 0.0724277998531608
vertex 68.0886220322822 99.5102926478742 0.0724277998531713
endloop
endfacet
facet normal 0.500000000000008 0.866025403784434 -7.93831542997837e-016
outer loop
vertex 66.7895839266056 98.7602926478742 3.07242779985315
vertex 65.490545820929 99.5102926478742 0.0724277998531787
vertex 65.490545820929 99.5102926478742 3.07242779985315
endloop
endfacet
facet normal 0.500000000000008 0.866025403784434 -7.93831542997837e-016
outer loop
vertex 65.490545820929 99.5102926478742 0.0724277998531787
vertex 66.7895839266056 98.7602926478742 3.07242779985315
vertex 66.7895839266056 98.7602926478742 0.0724277998531805
endloop
endfacet
facet normal 1.0 -8.22490224076465e-016 -1.52655665885959e-016
outer loop
vertex 65.490545820929 99.5102926478742 0.0724277998531787
vertex 65.490545820929 101.010292647874 3.07242779985314
vertex 65.490545820929 99.5102926478742 3.07242779985315
endloop
endfacet
facet normal 1.0 -8.22490224076465e-016 -1.52655665885959e-016
outer loop
vertex 65.490545820929 101.010292647874 3.07242779985314
vertex 65.490545820929 99.5102926478742 0.0724277998531787
vertex 65.490545820929 101.010292647874 0.0724277998531682
endloop
endfacet
facet normal 0.500000000000001 -0.866025403784438 -5.88188288111485e-015
outer loop
vertex 66.7895839266056 52.7602926478744 0.0724277998531939
vertex 65.4905458209289 52.0102926478744 3.07242779985347
vertex 65.4905458209289 52.0102926478744 0.0724277998532027
endloop
endfacet
facet normal 0.500000000000001 -0.866025403784438 -5.88188288111485e-015
outer loop
vertex 65.4905458209289 52.0102926478744 3.07242779985347
vertex 66.7895839266056 52.7602926478744 0.0724277998531939
vertex 66.7895839266056 52.7602926478744 3.07242779985345
endloop
endfacet
facet normal 3.24972700020258e-015 6.57794509233333e-015 1.0
outer loop
vertex 63.7895839266056 40.7602926478744 3.07242779985321
vertex 65.4905458209289 50.5102926478744 3.07242779985347
vertex 63.7895839266056 65.5436318392961 3.07242779985319
endloop
endfacet
facet normal 3.24972700020258e-015 6.57794509233333e-015 1.0
outer loop
vertex 65.4905458209289 50.5102926478744 3.07242779985347
vertex 63.7895839266056 40.7602926478744 3.07242779985321
vertex 66.7895839266056 49.7602926478744 3.07242779985347
endloop
endfacet
facet normal 3.24972700020258e-015 6.57794509233333e-015 1.0
outer loop
vertex 63.7895839266056 65.5436318392961 3.07242779985319
vertex 65.4905458209289 50.5102926478744 3.07242779985347
vertex 65.4905458209289 52.0102926478744 3.07242779985347
endloop
endfacet
facet normal 3.24972700020258e-015 6.57794509233333e-015 1.0
outer loop
vertex 63.7895839266056 65.5436318392961 3.07242779985319
vertex 65.4905458209289 52.0102926478744 3.07242779985347
vertex 66.7895839266056 52.7602926478744 3.07242779985345
endloop
endfacet
facet normal 3.24972700020258e-015 6.57794509233333e-015 1.0
outer loop
vertex 69.789583926605 37.7602926478742 3.0724277998538
vertex 63.7895839266056 40.7602926478744 3.07242779985321
vertex 16.789583926605 37.7602926478743 3.07242779985379
endloop
endfacet
facet normal 3.24972700020258e-015 6.57794509233333e-015 1.0
outer loop
vertex 63.7895839266056 40.7602926478744 3.07242779985321
vertex 69.789583926605 37.7602926478742 3.0724277998538
vertex 68.0886220322822 50.5102926478744 3.07242779985346
endloop
endfacet
facet normal 3.24972700020258e-015 6.57794509233333e-015 1.0
outer loop
vertex 68.0886220322822 50.5102926478744 3.07242779985346
vertex 69.789583926605 37.7602926478742 3.0724277998538
vertex 69.7895839266056 113.760292647874 3.07242779985317
endloop
endfacet
facet normal 3.24972700020258e-015 6.57794509233333e-015 1.0
outer loop
vertex 16.789583926605 37.7602926478743 3.07242779985379
vertex 63.7895839266056 40.7602926478744 3.07242779985321
vertex 16.789583926605 40.7602926478743 3.07242779985379
endloop
endfacet
facet normal 3.24972700020258e-015 6.57794509233333e-015 1.0
outer loop
vertex 63.7895839266056 40.7602926478744 3.07242779985321
vertex 68.0886220322822 50.5102926478744 3.07242779985346
vertex 66.7895839266056 49.7602926478744 3.07242779985347
endloop
endfacet
facet normal 3.24972700020258e-015 6.57794509233333e-015 1.0
outer loop
vertex 68.0886220322822 50.5102926478744 3.07242779985346
vertex 69.7895839266056 113.760292647874 3.07242779985317
vertex 68.0886220322822 52.0102926478744 3.07242779985345
endloop
endfacet
facet normal 3.24972700020258e-015 6.57794509233333e-015 1.0
outer loop
vertex 68.0886220322822 52.0102926478744 3.07242779985345
vertex 69.7895839266056 113.760292647874 3.07242779985317
vertex 66.7895839266056 52.7602926478744 3.07242779985345
endloop
endfacet
facet normal 3.24972700020258e-015 6.57794509233333e-015 1.0
outer loop
vertex 66.7895839266056 52.7602926478744 3.07242779985345
vertex 69.7895839266056 113.760292647874 3.07242779985317
vertex 68.0886220322822 99.5102926478742 3.07242779985313
endloop
endfacet
facet normal 3.24972700020258e-015 6.57794509233333e-015 1.0
outer loop
vertex 66.7895839266056 52.7602926478744 3.07242779985345
vertex 68.0886220322822 99.5102926478742 3.07242779985313
vertex 63.7895839266056 65.5436318392961 3.07242779985319
endloop
endfacet
facet normal 3.24972700020258e-015 6.57794509233333e-015 1.0
outer loop
vertex 63.7895839266056 65.5436318392961 3.07242779985319
vertex 68.0886220322822 99.5102926478742 3.07242779985313
vertex 66.7895839266056 98.7602926478742 3.07242779985315
endloop
endfacet
facet normal 3.24972700020258e-015 6.57794509233333e-015 1.0
outer loop
vertex 68.0886220322822 99.5102926478742 3.07242779985313
vertex 69.7895839266056 113.760292647874 3.07242779985317
vertex 68.0886220322823 101.010292647874 3.07242779985313
endloop
endfacet
facet normal 3.24972700020258e-015 6.57794509233333e-015 1.0
outer loop
vertex 68.0886220322823 101.010292647874 3.07242779985313
vertex 69.7895839266056 113.760292647874 3.07242779985317
vertex 66.7895839266056 101.760292647874 3.07242779985313
endloop
endfacet
facet normal 3.24972700020258e-015 6.57794509233333e-015 1.0
outer loop
vertex 66.7895839266056 101.760292647874 3.07242779985313
vertex 69.7895839266056 113.760292647874 3.07242779985317
vertex 63.7895839266056 110.760292647874 3.07242779985316
endloop
endfacet
facet normal 3.24972700020258e-015 6.57794509233333e-015 1.0
outer loop
vertex 63.7895839266056 110.760292647874 3.07242779985316
vertex 69.7895839266056 113.760292647874 3.07242779985317
vertex 16.7895839266056 110.760292647874 3.07242779985316
endloop
endfacet
facet normal 3.24972700020258e-015 6.57794509233333e-015 1.0
outer loop
vertex 16.7895839266056 110.760292647874 3.07242779985316
vertex 69.7895839266056 113.760292647874 3.07242779985317
vertex 16.7895839266056 113.760292647874 3.07242779985316
endloop
endfacet
facet normal 3.24972700020258e-015 6.57794509233333e-015 1.0
outer loop
vertex 63.7895839266056 65.5436318392961 3.07242779985319
vertex 65.490545820929 99.5102926478742 3.07242779985315
vertex 63.7895839266056 110.760292647874 3.07242779985316
endloop
endfacet
facet normal 3.24972700020258e-015 6.57794509233333e-015 1.0
outer loop
vertex 65.490545820929 99.5102926478742 3.07242779985315
vertex 63.7895839266056 65.5436318392961 3.07242779985319
vertex 66.7895839266056 98.7602926478742 3.07242779985315
endloop
endfacet
facet normal 3.24972700020258e-015 6.57794509233333e-015 1.0
outer loop
vertex 63.7895839266056 110.760292647874 3.07242779985316
vertex 65.490545820929 99.5102926478742 3.07242779985315
vertex 65.490545820929 101.010292647874 3.07242779985314
endloop
endfacet
facet normal 3.24972700020258e-015 6.57794509233333e-015 1.0
outer loop
vertex 63.7895839266056 110.760292647874 3.07242779985316
vertex 65.490545820929 101.010292647874 3.07242779985314
vertex 66.7895839266056 101.760292647874 3.07242779985313
endloop
endfacet
facet normal -1.0 8.22490224076465e-016 1.52655665885959e-016
outer loop
vertex 68.0886220322822 52.0102926478744 0.0724277998531953
vertex 68.0886220322822 50.5102926478744 3.07242779985346
vertex 68.0886220322822 52.0102926478744 3.07242779985345
endloop
endfacet
facet normal -1.0 8.22490224076465e-016 1.52655665885959e-016
outer loop
vertex 68.0886220322822 50.5102926478744 3.07242779985346
vertex 68.0886220322822 52.0102926478744 0.0724277998531953
vertex 68.0886220322822 50.5102926478744 0.0724277998532055
endloop
endfacet
facet normal -0.500000000000001 0.866025403784438 5.87098706909072e-015
outer loop
vertex 68.0886220322822 50.5102926478744 3.07242779985346
vertex 66.7895839266056 49.7602926478744 0.0724277998532147
vertex 66.7895839266056 49.7602926478744 3.07242779985347
endloop
endfacet
facet normal -0.500000000000001 0.866025403784438 5.87098706909072e-015
outer loop
vertex 66.7895839266056 49.7602926478744 0.0724277998532147
vertex 68.0886220322822 50.5102926478744 3.07242779985346
vertex 68.0886220322822 50.5102926478744 0.0724277998532055
endloop
endfacet
facet normal 0.499999999999999 0.866025403784439 5.71844622518761e-015
outer loop
vertex 66.7895839266056 49.7602926478744 3.07242779985347
vertex 65.4905458209289 50.5102926478744 0.0724277998532129
vertex 65.4905458209289 50.5102926478744 3.07242779985347
endloop
endfacet
facet normal 0.499999999999999 0.866025403784439 5.71844622518761e-015
outer loop
vertex 65.4905458209289 50.5102926478744 0.0724277998532129
vertex 66.7895839266056 49.7602926478744 3.07242779985347
vertex 66.7895839266056 49.7602926478744 0.0724277998532147
endloop
endfacet
facet normal 1.0 -8.3424008442042e-015 -1.52655665886009e-016
outer loop
vertex 65.4905458209289 50.5102926478744 0.0724277998532129
vertex 65.4905458209289 52.0102926478744 3.07242779985347
vertex 65.4905458209289 50.5102926478744 3.07242779985347
endloop
endfacet
facet normal 1.0 -8.3424008442042e-015 -1.52655665886009e-016
outer loop
vertex 65.4905458209289 52.0102926478744 3.07242779985347
vertex 65.4905458209289 50.5102926478744 0.0724277998532129
vertex 65.4905458209289 52.0102926478744 0.0724277998532027
endloop
endfacet
facet normal -0.500000000000002 -0.866025403784437 -5.72261125049982e-015
outer loop
vertex 68.0886220322822 52.0102926478744 0.0724277998531953
vertex 66.7895839266056 52.7602926478744 3.07242779985345
vertex 66.7895839266056 52.7602926478744 0.0724277998531939
endloop
endfacet
facet normal -0.500000000000002 -0.866025403784437 -5.72261125049982e-015
outer loop
vertex 66.7895839266056 52.7602926478744 3.07242779985345
vertex 68.0886220322822 52.0102926478744 0.0724277998531953
vertex 68.0886220322822 52.0102926478744 3.07242779985345
endloop
endfacet
endsolid untitled
