solid untitled
facet normal -4.55862199840342e-015 1.0 -7.51991062012631e-017
outer loop
vertex 11.9999999999998 150.0 2.99999999999992
vertex 2.99999999999978 150.0 -1.61090585315549e-013
vertex 2.99999999999976 150.0 2.99999999999992
endloop
endfacet
facet normal -4.55862199840342e-015 1.0 -7.51991062012631e-017
outer loop
vertex 2.99999999999978 150.0 -1.61090585315549e-013
vertex 11.9999999999998 150.0 2.99999999999992
vertex 11.9999999999999 150.0 -1.61795576936186e-013
endloop
endfacet
facet normal 3.78144424705303e-014 8.04459907278129e-016 1.0
outer loop
vertex 9.00000000000064 2.25597318603832e-014 3.00000000000018
vertex 6.00000000000054 21.0 3.00000000000014
vertex 6.00000000000065 2.25597318603832e-014 3.00000000000018
endloop
endfacet
facet normal 3.78144424705303e-014 8.04459907278129e-016 1.0
outer loop
vertex 6.00000000000054 21.0 3.00000000000014
vertex 9.00000000000064 2.25597318603832e-014 3.00000000000018
vertex 9.00000000000021 21.0 2.99999999999951
endloop
endfacet
facet normal 3.78144424705303e-014 8.04459907278129e-016 1.0
outer loop
vertex 3.00000000000052 20.9999999999999 3.00000000000014
vertex 11.9999999999998 150.0 2.99999999999992
vertex 2.99999999999976 150.0 2.99999999999992
endloop
endfacet
facet normal 3.78144424705303e-014 8.04459907278129e-016 1.0
outer loop
vertex 11.9999999999998 150.0 2.99999999999992
vertex 3.00000000000052 20.9999999999999 3.00000000000014
vertex 6.00000000000054 21.0 3.00000000000014
endloop
endfacet
facet normal 3.78144424705303e-014 8.04459907278129e-016 1.0
outer loop
vertex 11.9999999999998 150.0 2.99999999999992
vertex 6.00000000000054 21.0 3.00000000000014
vertex 9.00000000000021 21.0 2.99999999999951
endloop
endfacet
facet normal 3.78144424705303e-014 8.04459907278129e-016 1.0
outer loop
vertex 11.9999999999998 150.0 2.99999999999992
vertex 9.00000000000021 21.0 2.99999999999951
vertex 12.0000000000002 21.0000000000001 2.99999999999951
endloop
endfacet
facet normal 5.38111222247989e-015 -1.0 7.51991062012698e-017
outer loop
vertex 6.00000000000065 2.25597318603832e-014 3.00000000000018
vertex 9.00000000000064 2.25597318603832e-014 1.50000000000013
vertex 9.00000000000064 2.25597318603832e-014 3.00000000000018
endloop
endfacet
facet normal 5.38111222247989e-015 -1.0 7.51991062012698e-017
outer loop
vertex 9.00000000000064 2.25597318603832e-014 1.50000000000013
vertex 6.00000000000065 2.25597318603832e-014 3.00000000000018
vertex 6.00000000000065 2.25597318603832e-014 1.50000000000013
endloop
endfacet
facet normal 1.0 4.43905180906512e-015 6.62419997174519e-014
outer loop
vertex 12.0000000000002 21.0000000000001 2.99999999999951
vertex 11.9999999999999 150.0 -1.61795576936186e-013
vertex 11.9999999999998 150.0 2.99999999999992
endloop
endfacet
facet normal 1.0 4.43905180906512e-015 6.62419997174519e-014
outer loop
vertex 11.9999999999999 150.0 -1.61795576936186e-013
vertex 12.0000000000002 21.0000000000001 2.99999999999951
vertex 12.0000000000002 21.0 1.49999999999947
endloop
endfacet
facet normal 1.0 4.43905180906512e-015 6.62419997174519e-014
outer loop
vertex 11.9999999999999 150.0 -1.61795576936186e-013
vertex 12.0000000000002 21.0 1.49999999999947
vertex 12.0000000000007 4.51194637207664e-014 9.51738687859915e-014
endloop
endfacet
facet normal 1.0 4.43905180906512e-015 6.62419997174519e-014
outer loop
vertex 12.0000000000007 4.51194637207664e-014 9.51738687859915e-014
vertex 12.0000000000002 21.0 1.49999999999947
vertex 12.0000000000006 4.51194637207664e-014 1.50000000000014
endloop
endfacet
facet normal -2.57597965058801e-018 -1.7204286799358e-015 -1.0
outer loop
vertex 11.9999999999999 150.0 -1.61795576936186e-013
vertex 3.00000000000065 0.0 9.34113897343991e-014
vertex 2.99999999999978 150.0 -1.61090585315549e-013
endloop
endfacet
facet normal -2.57597965058801e-018 -1.7204286799358e-015 -1.0
outer loop
vertex 3.00000000000065 0.0 9.34113897343991e-014
vertex 11.9999999999999 150.0 -1.61795576936186e-013
vertex 6.00000000000052 21.0 6.34492458573277e-014
endloop
endfacet
facet normal -2.57597965058801e-018 -1.7204286799358e-015 -1.0
outer loop
vertex 6.00000000000052 21.0 6.34492458573277e-014
vertex 11.9999999999999 150.0 -1.61795576936186e-013
vertex 9.0000000000005 21.0 5.85143045128689e-014
endloop
endfacet
facet normal -2.57597965058801e-018 -1.7204286799358e-015 -1.0
outer loop
vertex 9.0000000000005 21.0 5.85143045128689e-014
vertex 12.0000000000007 4.51194637207664e-014 9.51738687859915e-014
vertex 9.00000000000061 2.25597318603832e-014 9.41163813550361e-014
endloop
endfacet
facet normal -2.57597965058801e-018 -1.7204286799358e-015 -1.0
outer loop
vertex 12.0000000000007 4.51194637207664e-014 9.51738687859915e-014
vertex 9.0000000000005 21.0 5.85143045128689e-014
vertex 11.9999999999999 150.0 -1.61795576936186e-013
endloop
endfacet
facet normal -2.57597965058801e-018 -1.7204286799358e-015 -1.0
outer loop
vertex 6.00000000000064 2.25597318603832e-014 9.94038185098134e-014
vertex 3.00000000000065 0.0 9.34113897343991e-014
vertex 6.00000000000052 21.0 6.34492458573277e-014
endloop
endfacet
facet normal 5.38111222247989e-015 -1.0 7.51991062012698e-017
outer loop
vertex 9.00000000000064 2.25597318603832e-014 1.50000000000013
vertex 12.0000000000007 4.51194637207664e-014 9.51738687859915e-014
vertex 12.0000000000006 4.51194637207664e-014 1.50000000000014
endloop
endfacet
facet normal 5.38111222247989e-015 -1.0 7.51991062012698e-017
outer loop
vertex 12.0000000000007 4.51194637207664e-014 9.51738687859915e-014
vertex 9.00000000000064 2.25597318603832e-014 1.50000000000013
vertex 9.00000000000061 2.25597318603832e-014 9.41163813550361e-014
endloop
endfacet
facet normal -1.0 -5.38111222247987e-015 1.63232853160144e-014
outer loop
vertex 9.00000000000061 2.25597318603832e-014 9.41163813550361e-014
vertex 9.00000000000053 21.0 1.5000000000001
vertex 9.0000000000005 21.0 5.85143045128689e-014
endloop
endfacet
facet normal -1.0 -5.38111222247987e-015 1.63232853160144e-014
outer loop
vertex 9.00000000000053 21.0 1.5000000000001
vertex 9.00000000000061 2.25597318603832e-014 9.41163813550361e-014
vertex 9.00000000000064 2.25597318603832e-014 1.50000000000013
endloop
endfacet
facet normal -4.05693996915122e-015 -1.12695552478398e-015 -1.0
outer loop
vertex 9.00000000000053 21.0 1.5000000000001
vertex 6.00000000000065 2.25597318603832e-014 1.50000000000013
vertex 6.00000000000053 21.0 1.50000000000012
endloop
endfacet
facet normal -4.05693996915122e-015 -1.12695552478398e-015 -1.0
outer loop
vertex 6.00000000000065 2.25597318603832e-014 1.50000000000013
vertex 9.00000000000053 21.0 1.5000000000001
vertex 9.00000000000064 2.25597318603832e-014 1.50000000000013
endloop
endfacet
facet normal 5.38111222247989e-015 -1.0 7.51991062012698e-017
outer loop
vertex 6.00000000000052 21.0 6.34492458573277e-014
vertex 9.00000000000053 21.0 1.5000000000001
vertex 6.00000000000053 21.0 1.50000000000012
endloop
endfacet
facet normal 5.38111222247989e-015 -1.0 7.51991062012698e-017
outer loop
vertex 9.00000000000053 21.0 1.5000000000001
vertex 6.00000000000052 21.0 6.34492458573277e-014
vertex 9.0000000000005 21.0 5.85143045128689e-014
endloop
endfacet
facet normal 1.0 5.44825428158817e-015 -8.80337469588682e-015
outer loop
vertex 6.00000000000065 2.25597318603832e-014 1.50000000000013
vertex 6.00000000000052 21.0 6.34492458573277e-014
vertex 6.00000000000053 21.0 1.50000000000012
endloop
endfacet
facet normal 1.0 5.44825428158817e-015 -8.80337469588682e-015
outer loop
vertex 6.00000000000052 21.0 6.34492458573277e-014
vertex 6.00000000000065 2.25597318603832e-014 1.50000000000013
vertex 6.00000000000064 2.25597318603832e-014 9.94038185098134e-014
endloop
endfacet
facet normal 5.38111222247989e-015 -1.0 7.51991062012698e-017
outer loop
vertex 3.00000000000065 0.0 1.50000000000013
vertex 6.00000000000064 2.25597318603832e-014 9.94038185098134e-014
vertex 6.00000000000065 2.25597318603832e-014 1.50000000000013
endloop
endfacet
facet normal 5.38111222247989e-015 -1.0 7.51991062012698e-017
outer loop
vertex 6.00000000000064 2.25597318603832e-014 9.94038185098134e-014
vertex 3.00000000000065 0.0 1.50000000000013
vertex 3.00000000000065 0.0 9.34113897343991e-014
endloop
endfacet
facet normal 9.14106753254377e-015 -1.0 -7.44471151392621e-015
outer loop
vertex 3.00000000000054 20.9999999999999 1.5000000000001
vertex 6.00000000000054 21.0 3.00000000000014
vertex 3.00000000000052 20.9999999999999 3.00000000000014
endloop
endfacet
facet normal 9.14106753254377e-015 -1.0 -7.44471151392621e-015
outer loop
vertex 6.00000000000054 21.0 3.00000000000014
vertex 3.00000000000054 20.9999999999999 1.5000000000001
vertex 6.00000000000053 21.0 1.50000000000012
endloop
endfacet
facet normal -1.0 -5.44825428158818e-015 1.28346407575934e-015
outer loop
vertex 6.00000000000065 2.25597318603832e-014 1.50000000000013
vertex 6.00000000000054 21.0 3.00000000000014
vertex 6.00000000000053 21.0 1.50000000000012
endloop
endfacet
facet normal -1.0 -5.44825428158818e-015 1.28346407575934e-015
outer loop
vertex 6.00000000000054 21.0 3.00000000000014
vertex 6.00000000000065 2.25597318603832e-014 1.50000000000013
vertex 6.00000000000065 2.25597318603832e-014 3.00000000000018
endloop
endfacet
facet normal 4.40295947849273e-015 -1.12695552478393e-015 -1.0
outer loop
vertex 6.00000000000053 21.0 1.50000000000012
vertex 3.00000000000065 0.0 1.50000000000013
vertex 3.00000000000054 20.9999999999999 1.5000000000001
endloop
endfacet
facet normal 4.40295947849273e-015 -1.12695552478393e-015 -1.0
outer loop
vertex 3.00000000000065 0.0 1.50000000000013
vertex 6.00000000000053 21.0 1.50000000000012
vertex 6.00000000000065 2.25597318603832e-014 1.50000000000013
endloop
endfacet
facet normal 1.29010228426096e-014 -1.0 1.51150203464603e-014
outer loop
vertex 9.00000000000021 21.0 2.99999999999951
vertex 12.0000000000002 21.0 1.49999999999947
vertex 12.0000000000002 21.0000000000001 2.99999999999951
endloop
endfacet
facet normal 1.29010228426096e-014 -1.0 1.51150203464603e-014
outer loop
vertex 12.0000000000002 21.0 1.49999999999947
vertex 9.00000000000021 21.0 2.99999999999951
vertex 9.00000000000053 21.0 1.5000000000001
endloop
endfacet
facet normal -1.03989502194445e-013 -1.67458770248502e-014 -1.0
outer loop
vertex 12.0000000000002 21.0 1.49999999999947
vertex 9.00000000000064 2.25597318603832e-014 1.50000000000013
vertex 9.00000000000053 21.0 1.5000000000001
endloop
endfacet
facet normal -1.03989502194445e-013 -1.67458770248502e-014 -1.0
outer loop
vertex 9.00000000000064 2.25597318603832e-014 1.50000000000013
vertex 12.0000000000002 21.0 1.49999999999947
vertex 12.0000000000006 4.51194637207664e-014 1.50000000000014
endloop
endfacet
facet normal 1.0 1.29849504164948e-014 1.06110259467937e-013
outer loop
vertex 9.00000000000064 2.25597318603832e-014 3.00000000000018
vertex 9.00000000000053 21.0 1.5000000000001
vertex 9.00000000000021 21.0 2.99999999999951
endloop
endfacet
facet normal 1.0 1.29849504164948e-014 1.06110259467937e-013
outer loop
vertex 9.00000000000053 21.0 1.5000000000001
vertex 9.00000000000064 2.25597318603832e-014 3.00000000000018
vertex 9.00000000000064 2.25597318603832e-014 1.50000000000013
endloop
endfacet
facet normal -1.0 -5.66050344501278e-015 -3.66986156724008e-015
outer loop
vertex 3.00000000000065 0.0 9.34113897343991e-014
vertex 2.99999999999976 150.0 2.99999999999992
vertex 2.99999999999978 150.0 -1.61090585315549e-013
endloop
endfacet
facet normal -1.0 -5.66050344501278e-015 -3.66986156724008e-015
outer loop
vertex 2.99999999999976 150.0 2.99999999999992
vertex 3.00000000000065 0.0 9.34113897343991e-014
vertex 3.00000000000054 20.9999999999999 1.5000000000001
endloop
endfacet
facet normal -1.0 -5.66050344501278e-015 -3.66986156724008e-015
outer loop
vertex 3.00000000000054 20.9999999999999 1.5000000000001
vertex 3.00000000000065 0.0 9.34113897343991e-014
vertex 3.00000000000065 0.0 1.50000000000013
endloop
endfacet
facet normal -1.0 -5.66050344501278e-015 -3.66986156724008e-015
outer loop
vertex 3.00000000000052 20.9999999999999 3.00000000000014
vertex 2.99999999999976 150.0 2.99999999999992
vertex 3.00000000000054 20.9999999999999 1.5000000000001
endloop
endfacet
endsolid untitled
