solid untitled
facet normal -0.857068722882449 -0.515202100399694 -6.2616739390769e-007
outer loop
vertex 51.4999999999995 7.84343485882744e-005 52.0000000000001
vertex 50.0000000000005 2.49547588763578 2.0
vertex 51.5001305141634 0.0 2.00000000000005
endloop
endfacet
facet normal -0.857068722882449 -0.515202100399694 -6.2616739390769e-007
outer loop
vertex 50.0000000000005 2.49547588763578 2.0
vertex 51.4999999999995 7.84343485882744e-005 52.0000000000001
vertex 50.0000000000001 2.49547588763524 52.0
endloop
endfacet
facet normal -0.857068722882449 -0.515202100399694 -6.2616739390769e-007
outer loop
vertex 50.0000000000005 2.49547588763578 2.0
vertex 50.0000000000001 2.49547588763524 52.0
vertex 50.0 2.49547588763528 50.0000000000001
endloop
endfacet
facet normal -1.87997765503206e-014 2.03412072169172e-014 1.0
outer loop
vertex 52.9999999999999 2.49547588763524 52.0000000000001
vertex 50.0000000000001 2.49547588763524 52.0
vertex 51.4999999999995 7.84343485882744e-005 52.0000000000001
endloop
endfacet
facet normal 0.857101135325554 -0.515148170944217 -7.61345741482526e-005
outer loop
vertex 53.0000000000003 2.49547588763578 2.00000000000005
vertex 51.5001305141634 0.0 2.00000000000005
vertex 51.5000652570819 3.92171741136593e-005 1.00000000000005
endloop
endfacet
facet normal 0.999999999995512 1.91042518305731e-006 2.30780685186271e-006
outer loop
vertex 52.9985787967698 2.49547588763528 50.0000000000001
vertex 52.9999999999998 61.4954758876354 52.0000000000001
vertex 52.9999999999999 2.49547588763524 52.0000000000001
endloop
endfacet
facet normal 0.999999999995512 1.91042518305731e-006 2.30780685186271e-006
outer loop
vertex 52.9999999999998 61.4954758876354 52.0000000000001
vertex 52.9985787967698 2.49547588763528 50.0000000000001
vertex 53.0000000000003 2.49547588763578 2.00000000000005
endloop
endfacet
facet normal 0.999999999995512 1.91042518305731e-006 2.30780685186271e-006
outer loop
vertex 52.9999999999998 61.4954758876354 52.0000000000001
vertex 53.0000000000003 2.49547588763578 2.00000000000005
vertex 53.0 4.49547588763577 2.00000000000006
endloop
endfacet
facet normal 0.999999999995512 1.91042518305731e-006 2.30780685186271e-006
outer loop
vertex 52.9999999999998 61.4954758876354 52.0000000000001
vertex 53.0 4.49547588763577 2.00000000000006
vertex 52.9985787967701 59.4954758876358 2.00000000000006
endloop
endfacet
facet normal 0.999999999995512 1.91042518305731e-006 2.30780685186271e-006
outer loop
vertex 52.9999999999998 61.4954758876354 52.0000000000001
vertex 52.9985787967701 59.4954758876358 2.00000000000006
vertex 53.0000000000001 61.4954758876358 2.0000000000001
endloop
endfacet
facet normal -1.0 -4.32009628176751e-015 -7.89447522457952e-015
outer loop
vertex 49.9999999999997 61.4954758876354 52.0000000000001
vertex 50.0 2.49547588763528 50.0000000000001
vertex 50.0000000000001 2.49547588763524 52.0
endloop
endfacet
facet normal -1.0 -4.32009628176751e-015 -7.89447522457952e-015
outer loop
vertex 50.0 2.49547588763528 50.0000000000001
vertex 49.9999999999997 61.4954758876354 52.0000000000001
vertex 50.0000000000005 2.49547588763578 2.0
endloop
endfacet
facet normal -1.0 -4.32009628176751e-015 -7.89447522457952e-015
outer loop
vertex 50.0000000000005 2.49547588763578 2.0
vertex 49.9999999999997 61.4954758876354 52.0000000000001
vertex 50.0000000000002 4.49547588763577 2.00000000000006
endloop
endfacet
facet normal -1.0 -4.32009628176751e-015 -7.89447522457952e-015
outer loop
vertex 50.0000000000002 4.49547588763577 2.00000000000006
vertex 49.9999999999997 61.4954758876354 52.0000000000001
vertex 50.0000000000002 59.386104384291 2.00000000000006
endloop
endfacet
facet normal -1.0 -4.32009628176751e-015 -7.89447522457952e-015
outer loop
vertex 50.0000000000002 59.386104384291 2.00000000000006
vertex 49.9999999999997 61.4954758876354 52.0000000000001
vertex 50.0000000000002 59.4954758876358 2.00000000000006
endloop
endfacet
facet normal -1.0 -4.32009628176751e-015 -7.89447522457952e-015
outer loop
vertex 50.0000000000002 59.4954758876358 2.00000000000006
vertex 49.9999999999997 61.4954758876354 52.0000000000001
vertex 50.0 61.4954758876358 2.00000000000007
endloop
endfacet
facet normal 0.0 0.0 1.0
outer loop
vertex 52.9985787967701 59.4954758876358 2.00000000000006
vertex 51.5000000000002 59.4954758876358 2.00000000000006
vertex 51.5000000000002 59.386104384291 2.00000000000006
endloop
endfacet
facet normal 0.0 0.0 1.0
outer loop
vertex 51.5000000000002 4.49547588763577 2.00000000000006
vertex 50.0000000000002 59.386104384291 2.00000000000006
vertex 50.0000000000002 4.49547588763577 2.00000000000006
endloop
endfacet
facet normal 0.0 0.0 1.0
outer loop
vertex 50.0000000000002 59.386104384291 2.00000000000006
vertex 51.5000000000002 4.49547588763577 2.00000000000006
vertex 51.5000000000002 59.386104384291 2.00000000000006
endloop
endfacet
facet normal 0.0 0.0 1.0
outer loop
vertex 51.5000000000002 59.386104384291 2.00000000000006
vertex 51.5000000000002 4.49547588763577 2.00000000000006
vertex 53.0 4.49547588763577 2.00000000000006
endloop
endfacet
facet normal 0.0 0.0 1.0
outer loop
vertex 51.5000000000002 59.386104384291 2.00000000000006
vertex 53.0 4.49547588763577 2.00000000000006
vertex 52.9985787967701 59.4954758876358 2.00000000000006
endloop
endfacet
facet normal 0.0 1.0 0.0
outer loop
vertex 51.5000000000002 4.49547588763577 2.00000000000006
vertex 53.0 4.49547588763577 1.05748743095546e-013
vertex 51.5000000000002 4.49547588763577 1.05748743095546e-013
endloop
endfacet
facet normal 0.0 1.0 0.0
outer loop
vertex 53.0 4.49547588763577 1.05748743095546e-013
vertex 51.5000000000002 4.49547588763577 2.00000000000006
vertex 53.0 4.49547588763577 2.00000000000006
endloop
endfacet
facet normal 0.0 1.0 0.0
outer loop
vertex 50.0000000000002 4.49547588763577 2.00000000000006
vertex 51.5000000000002 4.49547588763577 1.05748743095546e-013
vertex 50.0000000000002 4.49547588763577 1.05748743095546e-013
endloop
endfacet
facet normal 0.0 1.0 0.0
outer loop
vertex 51.5000000000002 4.49547588763577 1.05748743095546e-013
vertex 50.0000000000002 4.49547588763577 2.00000000000006
vertex 51.5000000000002 4.49547588763577 2.00000000000006
endloop
endfacet
facet normal 1.84757306233195e-016 -1.15438332850097e-016 1.0
outer loop
vertex 53.0 4.49547588763577 2.00000000000006
vertex 53.5000000000001 59.4954758876358 2.00000000000006
vertex 52.9985787967701 59.4954758876358 2.00000000000006
endloop
endfacet
facet normal 1.84757306233195e-016 -1.15438332850097e-016 1.0
outer loop
vertex 53.5000000000001 59.4954758876358 2.00000000000006
vertex 53.0 4.49547588763577 2.00000000000006
vertex 53.0000000000003 2.49547588763578 2.00000000000005
endloop
endfacet
facet normal 1.84757306233195e-016 -1.15438332850097e-016 1.0
outer loop
vertex 53.5000000000001 59.4954758876358 2.00000000000006
vertex 53.0000000000003 2.49547588763578 2.00000000000005
vertex 101.0 2.49547588763578 2.00000000000005
endloop
endfacet
facet normal 1.84757306233195e-016 -1.15438332850097e-016 1.0
outer loop
vertex 53.5000000000001 59.4954758876358 2.00000000000006
vertex 101.0 2.49547588763578 2.00000000000005
vertex 53.5000000000001 59.5320713545704 2.00000000000006
endloop
endfacet
facet normal 1.84757306233195e-016 -1.15438332850097e-016 1.0
outer loop
vertex 53.5000000000001 59.5320713545704 2.00000000000006
vertex 53.0000000000001 61.4954758876358 2.0000000000001
vertex 52.9985787967701 59.4954758876358 2.00000000000006
endloop
endfacet
facet normal 1.84757306233195e-016 -1.15438332850097e-016 1.0
outer loop
vertex 53.0000000000001 61.4954758876358 2.0000000000001
vertex 53.5000000000001 59.5320713545704 2.00000000000006
vertex 103.0 61.4954758876358 2.00000000000005
endloop
endfacet
facet normal 1.84757306233195e-016 -1.15438332850097e-016 1.0
outer loop
vertex 103.0 61.4954758876358 2.00000000000005
vertex 53.5000000000001 59.5320713545704 2.00000000000006
vertex 101.0 4.49547588763577 2.00000000000005
endloop
endfacet
facet normal 1.84757306233195e-016 -1.15438332850097e-016 1.0
outer loop
vertex 101.0 4.49547588763577 2.00000000000005
vertex 53.5000000000001 59.5320713545704 2.00000000000006
vertex 101.0 2.49547588763578 2.00000000000005
endloop
endfacet
facet normal 1.84757306233195e-016 -1.15438332850097e-016 1.0
outer loop
vertex 103.0 61.4954758876358 2.00000000000005
vertex 101.0 4.49547588763577 2.00000000000005
vertex 103.0 4.49547588763577 2.00000000000005
endloop
endfacet
facet normal 0.0 1.0 0.0
outer loop
vertex 50.0000000000002 59.386104384291 2.00000000000006
vertex 51.5000000000002 59.386104384291 1.05748743095546e-013
vertex 50.0000000000002 59.386104384291 1.05748743095546e-013
endloop
endfacet
facet normal 0.0 1.0 0.0
outer loop
vertex 51.5000000000002 59.386104384291 1.05748743095546e-013
vertex 50.0000000000002 59.386104384291 2.00000000000006
vertex 51.5000000000002 59.386104384291 2.00000000000006
endloop
endfacet
facet normal 1.78597877228046e-014 -1.07356371422559e-014 -1.0
outer loop
vertex 53.0000000000003 2.49547588763578 5.35793631684101e-014
vertex 51.5000000000004 7.84343481821992e-005 5.35793631684101e-014
vertex 50.0000000000005 2.49547588763578 0.0
endloop
endfacet
facet normal 0.0 0.0 1.0
outer loop
vertex 51.5000000000002 59.386104384291 2.00000000000006
vertex 50.0000000000002 59.4954758876358 2.00000000000006
vertex 50.0000000000002 59.386104384291 2.00000000000006
endloop
endfacet
facet normal 0.0 0.0 1.0
outer loop
vertex 50.0000000000002 59.4954758876358 2.00000000000006
vertex 51.5000000000002 59.386104384291 2.00000000000006
vertex 51.5000000000002 59.4954758876358 2.00000000000006
endloop
endfacet
facet normal -1.0 0.0 0.0
outer loop
vertex 50.0000000000002 59.386104384291 2.00000000000006
vertex 50.0000000000002 4.49547588763577 1.05748743095546e-013
vertex 50.0000000000002 4.49547588763577 2.00000000000006
endloop
endfacet
facet normal -1.0 0.0 0.0
outer loop
vertex 50.0000000000002 4.49547588763577 1.05748743095546e-013
vertex 50.0000000000002 59.386104384291 2.00000000000006
vertex 50.0000000000002 59.386104384291 1.05748743095546e-013
endloop
endfacet
facet normal 0.0 0.0 -1.0
outer loop
vertex 51.5000000000002 59.386104384291 1.05748743095546e-013
vertex 50.0000000000002 4.49547588763577 1.05748743095546e-013
vertex 50.0000000000002 59.386104384291 1.05748743095546e-013
endloop
endfacet
facet normal 0.0 0.0 -1.0
outer loop
vertex 50.0000000000002 4.49547588763577 1.05748743095546e-013
vertex 51.5000000000002 59.386104384291 1.05748743095546e-013
vertex 51.5000000000002 4.49547588763577 1.05748743095546e-013
endloop
endfacet
facet normal 0.0 0.0 -1.0
outer loop
vertex 51.5000000000002 4.49547588763577 1.05748743095546e-013
vertex 51.5000000000002 59.386104384291 1.05748743095546e-013
vertex 52.9985787967701 59.4954758876358 1.05748743095546e-013
endloop
endfacet
facet normal 0.0 0.0 -1.0
outer loop
vertex 51.5000000000002 4.49547588763577 1.05748743095546e-013
vertex 52.9985787967701 59.4954758876358 1.05748743095546e-013
vertex 53.0 4.49547588763577 1.05748743095546e-013
endloop
endfacet
facet normal -0.0727898817133947 0.997347298146513 0.0
outer loop
vertex 51.5000000000002 59.386104384291 2.00000000000006
vertex 52.9985787967701 59.4954758876358 1.05748743095546e-013
vertex 51.5000000000002 59.386104384291 1.05748743095546e-013
endloop
endfacet
facet normal -0.0727898817133947 0.997347298146513 0.0
outer loop
vertex 52.9985787967701 59.4954758876358 1.05748743095546e-013
vertex 51.5000000000002 59.386104384291 2.00000000000006
vertex 52.9985787967701 59.4954758876358 2.00000000000006
endloop
endfacet
facet normal 0.999999999666146 2.58400587171839e-005 0.0
outer loop
vertex 52.9985787967701 59.4954758876358 1.05748743095546e-013
vertex 53.0 4.49547588763577 2.00000000000006
vertex 53.0 4.49547588763577 1.05748743095546e-013
endloop
endfacet
facet normal 0.999999999666146 2.58400587171839e-005 0.0
outer loop
vertex 53.0 4.49547588763577 2.00000000000006
vertex 52.9985787967701 59.4954758876358 1.05748743095546e-013
vertex 52.9985787967701 59.4954758876358 2.00000000000006
endloop
endfacet
facet normal 0.0 0.0 -1.0
outer loop
vertex 2.0 61.4954758876358 6.90891788224235e-014
vertex 0.0 59.4954758876358 6.90891788224235e-014
vertex 0.0 61.4954758876358 6.90891788224235e-014
endloop
endfacet
facet normal 0.0 0.0 -1.0
outer loop
vertex 0.0 59.4954758876358 6.90891788224235e-014
vertex 2.0 61.4954758876358 6.90891788224235e-014
vertex 2.0 59.4954758876358 6.90891788224235e-014
endloop
endfacet
facet normal -7.14881085242529e-016 -0.371975929708445 -0.928242375523515
outer loop
vertex 50.0000000000005 2.49547588763578 0.0
vertex 0.0 3.92171741136593e-005 1.00000000000005
vertex 0.0 2.49547588763578 6.90891788224235e-014
endloop
endfacet
facet normal -7.14881085242529e-016 -0.371975929708445 -0.928242375523515
outer loop
vertex 0.0 3.92171741136593e-005 1.00000000000005
vertex 50.0000000000005 2.49547588763578 0.0
vertex 51.5000652570819 3.92171741136593e-005 1.00000000000005
endloop
endfacet
facet normal 0.857087666735446 -0.515170584884258 1.46872655171853e-017
outer loop
vertex 53.0000000000003 2.49547588763578 2.00000000000005
vertex 51.5000652570819 3.92171741136593e-005 1.00000000000005
vertex 53.0000000000003 2.49547588763578 5.35793631684101e-014
endloop
endfacet
facet normal -8.93010968418128e-015 -4.75674221572618e-015 1.0
outer loop
vertex 50.0000000000005 2.49547588763578 2.0
vertex 51.5000000000002 4.49547588763577 2.00000000000006
vertex 50.0000000000002 4.49547588763577 2.00000000000006
endloop
endfacet
facet normal -8.93010968418128e-015 -4.75674221572618e-015 1.0
outer loop
vertex 51.5000000000002 4.49547588763577 2.00000000000006
vertex 50.0000000000005 2.49547588763578 2.0
vertex 51.5001305141634 0.0 2.00000000000005
endloop
endfacet
facet normal -8.93010968418128e-015 -4.75674221572618e-015 1.0
outer loop
vertex 51.5000000000002 4.49547588763577 2.00000000000006
vertex 51.5001305141634 0.0 2.00000000000005
vertex 53.0 4.49547588763577 2.00000000000006
endloop
endfacet
facet normal -8.93010968418128e-015 -4.75674221572618e-015 1.0
outer loop
vertex 53.0 4.49547588763577 2.00000000000006
vertex 51.5001305141634 0.0 2.00000000000005
vertex 53.0000000000003 2.49547588763578 2.00000000000005
endloop
endfacet
facet normal -1.47311873571217e-016 1.06098497379566e-016 -1.0
outer loop
vertex 50.0 61.4954758876358 6.90891788224235e-014
vertex 2.0 59.4954758876358 6.90891788224235e-014
vertex 2.0 61.4954758876358 6.90891788224235e-014
endloop
endfacet
facet normal -1.47311873571217e-016 1.06098497379566e-016 -1.0
outer loop
vertex 53.0000000000001 61.4954758876358 1.02928776612998e-013
vertex 50.0000000000002 59.386104384291 1.05748743095546e-013
vertex 50.0 61.4954758876358 6.90891788224235e-014
endloop
endfacet
facet normal -1.47311873571217e-016 1.06098497379566e-016 -1.0
outer loop
vertex 50.0000000000002 59.386104384291 1.05748743095546e-013
vertex 53.0000000000001 61.4954758876358 1.02928776612998e-013
vertex 51.5000000000002 59.386104384291 1.05748743095546e-013
endloop
endfacet
facet normal -1.47311873571217e-016 1.06098497379566e-016 -1.0
outer loop
vertex 51.5000000000002 59.386104384291 1.05748743095546e-013
vertex 53.0000000000001 61.4954758876358 1.02928776612998e-013
vertex 52.9985787967701 59.4954758876358 1.05748743095546e-013
endloop
endfacet
facet normal -1.47311873571217e-016 1.06098497379566e-016 -1.0
outer loop
vertex 52.9985787967701 59.4954758876358 1.05748743095546e-013
vertex 53.0000000000001 61.4954758876358 1.02928776612998e-013
vertex 53.0 4.49547588763577 1.05748743095546e-013
endloop
endfacet
facet normal -1.47311873571217e-016 1.06098497379566e-016 -1.0
outer loop
vertex 53.0 4.49547588763577 1.05748743095546e-013
vertex 53.0000000000001 61.4954758876358 1.02928776612998e-013
vertex 53.0000000000003 2.49547588763578 5.35793631684101e-014
endloop
endfacet
facet normal -1.47311873571217e-016 1.06098497379566e-016 -1.0
outer loop
vertex 53.0000000000003 2.49547588763578 5.35793631684101e-014
vertex 53.0000000000001 61.4954758876358 1.02928776612998e-013
vertex 103.0 61.4954758876358 5.35793631684101e-014
endloop
endfacet
facet normal -1.47311873571217e-016 1.06098497379566e-016 -1.0
outer loop
vertex 53.0000000000003 2.49547588763578 5.35793631684101e-014
vertex 103.0 61.4954758876358 5.35793631684101e-014
vertex 103.0 2.49547588763578 5.35793631684101e-014
endloop
endfacet
facet normal -1.47311873571217e-016 1.06098497379566e-016 -1.0
outer loop
vertex 2.0 59.4954758876358 6.90891788224235e-014
vertex 0.0 2.49547588763578 6.90891788224235e-014
vertex 0.0 59.4954758876358 6.90891788224235e-014
endloop
endfacet
facet normal -1.47311873571217e-016 1.06098497379566e-016 -1.0
outer loop
vertex 0.0 2.49547588763578 6.90891788224235e-014
vertex 2.0 59.4954758876358 6.90891788224235e-014
vertex 50.0000000000005 2.49547588763578 0.0
endloop
endfacet
facet normal -1.47311873571217e-016 1.06098497379566e-016 -1.0
outer loop
vertex 50.0000000000005 2.49547588763578 0.0
vertex 2.0 59.4954758876358 6.90891788224235e-014
vertex 50.0000000000002 4.49547588763577 1.05748743095546e-013
endloop
endfacet
facet normal -1.47311873571217e-016 1.06098497379566e-016 -1.0
outer loop
vertex 50.0000000000002 4.49547588763577 1.05748743095546e-013
vertex 2.0 59.4954758876358 6.90891788224235e-014
vertex 50.0 61.4954758876358 6.90891788224235e-014
endloop
endfacet
facet normal -1.47311873571217e-016 1.06098497379566e-016 -1.0
outer loop
vertex 50.0000000000002 4.49547588763577 1.05748743095546e-013
vertex 50.0 61.4954758876358 6.90891788224235e-014
vertex 50.0000000000002 59.386104384291 1.05748743095546e-013
endloop
endfacet
facet normal -1.47311873571217e-016 1.06098497379566e-016 -1.0
outer loop
vertex 50.0000000000005 2.49547588763578 0.0
vertex 50.0000000000002 4.49547588763577 1.05748743095546e-013
vertex 51.5000000000002 4.49547588763577 1.05748743095546e-013
endloop
endfacet
facet normal -1.47311873571217e-016 1.06098497379566e-016 -1.0
outer loop
vertex 50.0000000000005 2.49547588763578 0.0
vertex 51.5000000000002 4.49547588763577 1.05748743095546e-013
vertex 53.0000000000003 2.49547588763578 5.35793631684101e-014
endloop
endfacet
facet normal -1.47311873571217e-016 1.06098497379566e-016 -1.0
outer loop
vertex 53.0000000000003 2.49547588763578 5.35793631684101e-014
vertex 51.5000000000002 4.49547588763577 1.05748743095546e-013
vertex 53.0 4.49547588763577 1.05748743095546e-013
endloop
endfacet
facet normal 0.0 1.0 0.0
outer loop
vertex 53.0000000000001 61.4954758876358 1.02928776612998e-013
vertex 103.0 61.4954758876358 2.00000000000005
vertex 103.0 61.4954758876358 5.35793631684101e-014
endloop
endfacet
facet normal 0.0 1.0 0.0
outer loop
vertex 103.0 61.4954758876358 2.00000000000005
vertex 53.0000000000001 61.4954758876358 1.02928776612998e-013
vertex 53.0000000000001 61.4954758876358 2.0000000000001
endloop
endfacet
facet normal 1.0 0.0 0.0
outer loop
vertex 103.0 61.4954758876358 5.35793631684101e-014
vertex 103.0 2.49547588763578 2.00000000000005
vertex 103.0 2.49547588763578 5.35793631684101e-014
endloop
endfacet
facet normal 1.0 0.0 0.0
outer loop
vertex 103.0 2.49547588763578 2.00000000000005
vertex 103.0 61.4954758876358 5.35793631684101e-014
vertex 103.0 4.49547588763577 2.00000000000005
endloop
endfacet
facet normal 1.0 0.0 0.0
outer loop
vertex 103.0 4.49547588763577 2.00000000000005
vertex 103.0 61.4954758876358 5.35793631684101e-014
vertex 103.0 61.4954758876358 2.00000000000005
endloop
endfacet
facet normal 0.0 -1.0 0.0
outer loop
vertex 103.0 2.49547588763578 2.00000000000005
vertex 53.0000000000003 2.49547588763578 5.35793631684101e-014
vertex 103.0 2.49547588763578 5.35793631684101e-014
endloop
endfacet
facet normal 0.0 -1.0 0.0
outer loop
vertex 53.0000000000003 2.49547588763578 5.35793631684101e-014
vertex 103.0 2.49547588763578 2.00000000000005
vertex 53.0000000000003 2.49547588763578 2.00000000000005
endloop
endfacet
facet normal 0.0 -1.0 0.0
outer loop
vertex 53.0000000000003 2.49547588763578 2.00000000000005
vertex 103.0 2.49547588763578 2.00000000000005
vertex 101.0 2.49547588763578 2.00000000000005
endloop
endfacet
facet normal 4.34822205764721e-020 -1.0 -1.01162191946668e-014
outer loop
vertex 53.0000000000003 2.49547588763578 5.35793631684101e-014
vertex 50.0000000000005 2.49547588763578 2.0
vertex 50.0000000000005 2.49547588763578 0.0
endloop
endfacet
facet normal 4.34822205764721e-020 -1.0 -1.01162191946668e-014
outer loop
vertex 50.0000000000005 2.49547588763578 2.0
vertex 53.0000000000003 2.49547588763578 5.35793631684101e-014
vertex 53.0000000000003 2.49547588763578 2.00000000000005
endloop
endfacet
facet normal 4.34822205764721e-020 -1.0 -1.01162191946668e-014
outer loop
vertex 50.0000000000005 2.49547588763578 2.0
vertex 53.0000000000003 2.49547588763578 2.00000000000005
vertex 50.0 2.49547588763528 50.0000000000001
endloop
endfacet
facet normal 4.34822205764721e-020 -1.0 -1.01162191946668e-014
outer loop
vertex 50.0 2.49547588763528 50.0000000000001
vertex 53.0000000000003 2.49547588763578 2.00000000000005
vertex 52.9985787967698 2.49547588763528 50.0000000000001
endloop
endfacet
facet normal 0.0 -1.0 0.0
outer loop
vertex 50.0000000000005 2.49547588763578 2.0
vertex 0.0 2.49547588763578 6.90891788224235e-014
vertex 50.0000000000005 2.49547588763578 0.0
endloop
endfacet
facet normal 0.0 -1.0 0.0
outer loop
vertex 0.0 2.49547588763578 6.90891788224235e-014
vertex 50.0000000000005 2.49547588763578 2.0
vertex 0.0 2.49547588763578 2.00000000000007
endloop
endfacet
facet normal -1.0 0.0 0.0
outer loop
vertex 0.0 61.4954758876358 2.00000000000007
vertex 0.0 2.49547588763578 6.90891788224235e-014
vertex 0.0 2.49547588763578 2.00000000000007
endloop
endfacet
facet normal -1.0 0.0 0.0
outer loop
vertex 0.0 2.49547588763578 6.90891788224235e-014
vertex 0.0 61.4954758876358 2.00000000000007
vertex 0.0 59.4954758876358 6.90891788224235e-014
endloop
endfacet
facet normal -1.0 0.0 0.0
outer loop
vertex 0.0 59.4954758876358 6.90891788224235e-014
vertex 0.0 61.4954758876358 2.00000000000007
vertex 0.0 61.4954758876358 6.90891788224235e-014
endloop
endfacet
facet normal -0.857061551568271 -0.515214028872639 3.57240972371794e-005
outer loop
vertex 50.0000000000005 2.49547588763578 2.0
vertex 51.5000652570819 3.92171741136593e-005 1.00000000000005
vertex 51.5001305141634 0.0 2.00000000000005
endloop
endfacet
facet normal -0.857074194528293 -0.515192996650138 3.57257471274689e-005
outer loop
vertex 50.0000000000005 2.49547588763578 0.0
vertex 51.5000000000004 7.84343481821992e-005 5.35793631684101e-014
vertex 51.5000652570819 3.92171741136593e-005 1.00000000000005
endloop
endfacet
facet normal 0.857074192591245 -0.515192995485762 -7.61345738187141e-005
outer loop
vertex 53.0000000000003 2.49547588763578 5.35793631684101e-014
vertex 51.5000652570819 3.92171741136593e-005 1.00000000000005
vertex 51.5000000000004 7.84343481821992e-005 5.35793631684101e-014
endloop
endfacet
facet normal 6.87128004289341e-016 -0.371975929708438 0.928242375523518
outer loop
vertex 51.5000652570819 3.92171741136593e-005 1.00000000000005
vertex 0.0 2.49547588763578 2.00000000000007
vertex 0.0 3.92171741136593e-005 1.00000000000005
endloop
endfacet
facet normal 6.87128004289341e-016 -0.371975929708438 0.928242375523518
outer loop
vertex 0.0 2.49547588763578 2.00000000000007
vertex 51.5000652570819 3.92171741136593e-005 1.00000000000005
vertex 50.0000000000005 2.49547588763578 2.0
endloop
endfacet
facet normal -0.85706787351375 -0.515203513371773 1.18893441967408e-016
outer loop
vertex 50.0000000000005 2.49547588763578 0.0
vertex 51.5000652570819 3.92171741136593e-005 1.00000000000005
vertex 50.0000000000005 2.49547588763578 2.0
endloop
endfacet
facet normal 0.0 1.0 0.0
outer loop
vertex 0.0 61.4954758876358 2.00000000000007
vertex 2.0 61.4954758876358 6.90891788224235e-014
vertex 0.0 61.4954758876358 6.90891788224235e-014
endloop
endfacet
facet normal 0.0 1.0 0.0
outer loop
vertex 2.0 61.4954758876358 6.90891788224235e-014
vertex 0.0 61.4954758876358 2.00000000000007
vertex 50.0 61.4954758876358 6.90891788224235e-014
endloop
endfacet
facet normal 0.0 1.0 0.0
outer loop
vertex 50.0 61.4954758876358 6.90891788224235e-014
vertex 0.0 61.4954758876358 2.00000000000007
vertex 50.0 61.4954758876358 2.00000000000007
endloop
endfacet
facet normal 1.65819461316919e-014 -0.37197592970845 -0.928242375523513
outer loop
vertex 53.0000000000003 2.49547588763578 5.35793631684101e-014
vertex 51.5000652570819 3.92171741136593e-005 1.00000000000005
vertex 50.0000000000005 2.49547588763578 0.0
endloop
endfacet
facet normal 1.0 0.0 0.0
outer loop
vertex 103.0 2.49547588763578 2.00000000000005
vertex 103.0 3.92171741136593e-005 1.00000000000005
vertex 103.0 2.49547588763578 5.35793631684101e-014
endloop
endfacet
facet normal 0.0 0.0 1.0
outer loop
vertex 103.0 2.49547588763578 2.00000000000005
vertex 101.0 4.49547588763577 2.00000000000005
vertex 101.0 2.49547588763578 2.00000000000005
endloop
endfacet
facet normal 0.0 0.0 1.0
outer loop
vertex 101.0 4.49547588763577 2.00000000000005
vertex 103.0 2.49547588763578 2.00000000000005
vertex 103.0 4.49547588763577 2.00000000000005
endloop
endfacet
facet normal -8.77835732381742e-028 1.0 -2.25597318603828e-014
outer loop
vertex 50.0 61.4954758876358 2.00000000000007
vertex 53.0000000000001 61.4954758876358 1.02928776612998e-013
vertex 50.0 61.4954758876358 6.90891788224235e-014
endloop
endfacet
facet normal -8.77835732381742e-028 1.0 -2.25597318603828e-014
outer loop
vertex 53.0000000000001 61.4954758876358 1.02928776612998e-013
vertex 50.0 61.4954758876358 2.00000000000007
vertex 53.0000000000001 61.4954758876358 2.0000000000001
endloop
endfacet
facet normal -8.77835732381742e-028 1.0 -2.25597318603828e-014
outer loop
vertex 53.0000000000001 61.4954758876358 2.0000000000001
vertex 50.0 61.4954758876358 2.00000000000007
vertex 49.9999999999997 61.4954758876354 52.0000000000001
endloop
endfacet
facet normal -8.77835732381742e-028 1.0 -2.25597318603828e-014
outer loop
vertex 53.0000000000001 61.4954758876358 2.0000000000001
vertex 49.9999999999997 61.4954758876354 52.0000000000001
vertex 52.9999999999998 61.4954758876354 52.0000000000001
endloop
endfacet
facet normal -1.0 0.0 0.0
outer loop
vertex 0.0 2.49547588763578 6.90891788224235e-014
vertex 0.0 3.92171741136593e-005 1.00000000000005
vertex 0.0 2.49547588763578 2.00000000000007
endloop
endfacet
facet normal -1.51107875681367e-018 -0.371975929708441 -0.928242375523517
outer loop
vertex 53.0000000000003 2.49547588763578 5.35793631684101e-014
vertex 69.6000652570819 3.92171741136593e-005 1.00000000000005
vertex 51.5000652570819 3.92171741136593e-005 1.00000000000005
endloop
endfacet
facet normal -1.51107875681367e-018 -0.371975929708441 -0.928242375523517
outer loop
vertex 69.6000652570819 3.92171741136593e-005 1.00000000000005
vertex 53.0000000000003 2.49547588763578 5.35793631684101e-014
vertex 103.0 2.49547588763578 5.35793631684101e-014
endloop
endfacet
facet normal -1.51107875681367e-018 -0.371975929708441 -0.928242375523517
outer loop
vertex 69.6000652570819 3.92171741136593e-005 1.00000000000005
vertex 103.0 2.49547588763578 5.35793631684101e-014
vertex 103.0 3.92171741136593e-005 1.00000000000005
endloop
endfacet
facet normal -1.50398212402556e-014 -9.5592084154171e-016 1.0
outer loop
vertex 50.0000000000001 2.49547588763524 52.0
vertex 52.9999999999998 61.4954758876354 52.0000000000001
vertex 49.9999999999997 61.4954758876354 52.0000000000001
endloop
endfacet
facet normal -1.50398212402556e-014 -9.5592084154171e-016 1.0
outer loop
vertex 52.9999999999998 61.4954758876354 52.0000000000001
vertex 50.0000000000001 2.49547588763524 52.0
vertex 52.9999999999999 2.49547588763524 52.0000000000001
endloop
endfacet
facet normal 2.11658482645459e-028 -1.0 -2.25597318603835e-014
outer loop
vertex 52.9999999999999 2.49547588763524 52.0000000000001
vertex 50.0 2.49547588763528 50.0000000000001
vertex 52.9985787967698 2.49547588763528 50.0000000000001
endloop
endfacet
facet normal 2.11658482645459e-028 -1.0 -2.25597318603835e-014
outer loop
vertex 50.0 2.49547588763528 50.0000000000001
vertex 52.9999999999999 2.49547588763524 52.0000000000001
vertex 50.0000000000001 2.49547588763524 52.0
endloop
endfacet
facet normal 5.03230436433397e-016 -3.58770375126913e-016 1.0
outer loop
vertex 50.0000000000005 2.49547588763578 2.0
vertex 0.0 61.4954758876358 2.00000000000007
vertex 0.0 2.49547588763578 2.00000000000007
endloop
endfacet
facet normal 5.03230436433397e-016 -3.58770375126913e-016 1.0
outer loop
vertex 0.0 61.4954758876358 2.00000000000007
vertex 50.0000000000005 2.49547588763578 2.0
vertex 50.0000000000002 4.49547588763577 2.00000000000006
endloop
endfacet
facet normal 5.03230436433397e-016 -3.58770375126913e-016 1.0
outer loop
vertex 0.0 61.4954758876358 2.00000000000007
vertex 50.0000000000002 4.49547588763577 2.00000000000006
vertex 50.0 61.4954758876358 2.00000000000007
endloop
endfacet
facet normal 5.03230436433397e-016 -3.58770375126913e-016 1.0
outer loop
vertex 50.0000000000002 4.49547588763577 2.00000000000006
vertex 50.0000000000002 59.4954758876358 2.00000000000006
vertex 50.0 61.4954758876358 2.00000000000007
endloop
endfacet
facet normal 5.03230436433397e-016 -3.58770375126913e-016 1.0
outer loop
vertex 50.0000000000002 59.4954758876358 2.00000000000006
vertex 50.0000000000002 4.49547588763577 2.00000000000006
vertex 50.0000000000002 59.386104384291 2.00000000000006
endloop
endfacet
facet normal 0.857148816400128 -0.515068836643928 7.88229449899296e-006
outer loop
vertex 53.0000000000003 2.49547588763578 2.00000000000005
vertex 51.4999999999995 7.84343485882744e-005 52.0000000000001
vertex 51.5001305141634 0.0 2.00000000000005
endloop
endfacet
facet normal 0.857148816400128 -0.515068836643928 7.88229449899296e-006
outer loop
vertex 51.4999999999995 7.84343485882744e-005 52.0000000000001
vertex 53.0000000000003 2.49547588763578 2.00000000000005
vertex 52.9999999999999 2.49547588763524 52.0000000000001
endloop
endfacet
facet normal 0.857148816400128 -0.515068836643928 7.88229449899296e-006
outer loop
vertex 52.9999999999999 2.49547588763524 52.0000000000001
vertex 53.0000000000003 2.49547588763578 2.00000000000005
vertex 52.9985787967698 2.49547588763528 50.0000000000001
endloop
endfacet
facet normal 1.0 1.57918123022683e-013 1.26117095736037e-030
outer loop
vertex 53.0 4.49547588763577 1.05748743095546e-013
vertex 53.0000000000003 2.49547588763578 2.00000000000005
vertex 53.0000000000003 2.49547588763578 5.35793631684101e-014
endloop
endfacet
facet normal 1.0 1.57918123022683e-013 1.26117095736037e-030
outer loop
vertex 53.0000000000003 2.49547588763578 2.00000000000005
vertex 53.0 4.49547588763577 1.05748743095546e-013
vertex 53.0 4.49547588763577 2.00000000000006
endloop
endfacet
facet normal 0.0 0.0 1.0
outer loop
vertex 53.5000000000001 59.5320713545704 2.00000000000006
vertex 52.9985787967701 59.4954758876358 2.00000000000006
vertex 53.5000000000001 59.4954758876358 2.00000000000006
endloop
endfacet
facet normal -2.2666181352205e-018 -0.371975929708443 0.928242375523516
outer loop
vertex 69.6000652570819 3.92171741136593e-005 1.00000000000005
vertex 53.0000000000003 2.49547588763578 2.00000000000005
vertex 51.5000652570819 3.92171741136593e-005 1.00000000000005
endloop
endfacet
facet normal -2.2666181352205e-018 -0.371975929708443 0.928242375523516
outer loop
vertex 53.0000000000003 2.49547588763578 2.00000000000005
vertex 69.6000652570819 3.92171741136593e-005 1.00000000000005
vertex 101.0 2.49547588763578 2.00000000000005
endloop
endfacet
facet normal -2.2666181352205e-018 -0.371975929708443 0.928242375523516
outer loop
vertex 101.0 2.49547588763578 2.00000000000005
vertex 69.6000652570819 3.92171741136593e-005 1.00000000000005
vertex 103.0 3.92171741136593e-005 1.00000000000005
endloop
endfacet
facet normal -2.2666181352205e-018 -0.371975929708443 0.928242375523516
outer loop
vertex 101.0 2.49547588763578 2.00000000000005
vertex 103.0 3.92171741136593e-005 1.00000000000005
vertex 103.0 2.49547588763578 2.00000000000005
endloop
endfacet
endsolid untitled
