solid untitled
facet normal -1.0 8.63419051765117e-015 -1.0547118733939e-014
outer loop
vertex -156.530197998984 76.0000000000017 2.09485373756679
vertex -156.530197998985 1.80382546163372e-012 0.0948537375712816
vertex -156.530197998985 1.85996817440014e-012 2.09485373757128
endloop
endfacet
facet normal -1.0 8.63419051765117e-015 -1.0547118733939e-014
outer loop
vertex -156.530197998985 1.80382546163372e-012 0.0948537375712816
vertex -156.530197998984 76.0000000000017 2.09485373756679
vertex -156.530197998984 76.0000000000017 0.0948537375667922
endloop
endfacet
facet normal -0.924906088229291 -1.16512744714797e-013 0.380195644315387
outer loop
vertex 2.05265806229303 4.80072098634812e-013 8.40468155557722
vertex 1.4059597589231 12.750000000001 6.83145154367135
vertex -0.541085327783301 2.76251272383513e-013 2.09485373757128
endloop
endfacet
facet normal -0.924906088229291 -1.16512744714797e-013 0.380195644315387
outer loop
vertex 1.4059597589231 12.750000000001 6.83145154367135
vertex 2.05265806229303 4.80072098634812e-013 8.40468155557722
vertex 2.05265806228324 76.0000000000004 8.40468155557702
endloop
endfacet
facet normal -0.924906088229291 -1.16512744714797e-013 0.380195644315387
outer loop
vertex -0.541085327783301 2.76251272383513e-013 2.09485373757128
vertex 1.4059597589231 12.750000000001 6.83145154367135
vertex 0.912071129345318 12.000000000001 5.62996329088941
endloop
endfacet
facet normal -0.924906088229291 -1.16512744714797e-013 0.380195644315387
outer loop
vertex 1.4059597589231 12.750000000001 6.83145154367135
vertex 2.05265806228324 76.0000000000004 8.40468155557702
vertex 1.40595975892289 14.2500000000007 6.8314515436713
endloop
endfacet
facet normal -0.924906088229291 -1.16512744714797e-013 0.380195644315387
outer loop
vertex 1.40595975892289 14.2500000000007 6.8314515436713
vertex 2.05265806228324 76.0000000000004 8.40468155557702
vertex 0.912071129344901 15.0000000000005 5.62996329088932
endloop
endfacet
facet normal -0.924906088229291 -1.16512744714797e-013 0.380195644315387
outer loop
vertex 0.912071129344901 15.0000000000005 5.62996329088932
vertex 2.05265806228324 76.0000000000004 8.40468155557702
vertex 1.40595975891686 61.7500000000009 6.83145154367118
endloop
endfacet
facet normal -0.924906088229291 -1.16512744714797e-013 0.380195644315387
outer loop
vertex 0.912071129344901 15.0000000000005 5.62996329088932
vertex 1.40595975891686 61.7500000000009 6.83145154367118
vertex 0.912071129339079 61.0000000000009 5.62996329088925
endloop
endfacet
facet normal -0.924906088229291 -1.16512744714797e-013 0.380195644315387
outer loop
vertex 1.40595975891686 61.7500000000009 6.83145154367118
vertex 2.05265806228324 76.0000000000004 8.40468155557702
vertex 1.40595975891665 63.2500000000006 6.83145154367113
endloop
endfacet
facet normal -0.924906088229291 -1.16512744714797e-013 0.380195644315387
outer loop
vertex 1.40595975891665 63.2500000000006 6.83145154367113
vertex 2.05265806228324 76.0000000000004 8.40468155557702
vertex 0.912071129338664 64.0000000000003 5.62996329088916
endloop
endfacet
facet normal -0.924906088229291 -1.16512744714797e-013 0.380195644315387
outer loop
vertex -0.541085327783301 2.76251272383513e-013 2.09485373757128
vertex 0.41818249976733 12.7500000000008 4.42847503810743
vertex -0.541085327792909 76.0000000000001 2.09485373757078
endloop
endfacet
facet normal -0.924906088229291 -1.16512744714797e-013 0.380195644315387
outer loop
vertex 0.41818249976733 12.7500000000008 4.42847503810743
vertex -0.541085327783301 2.76251272383513e-013 2.09485373757128
vertex 0.912071129345318 12.000000000001 5.62996329088941
endloop
endfacet
facet normal -0.924906088229291 -1.16512744714797e-013 0.380195644315387
outer loop
vertex -0.541085327792909 76.0000000000001 2.09485373757078
vertex 0.41818249976733 12.7500000000008 4.42847503810743
vertex 0.418182499767123 14.2500000000005 4.42847503810738
endloop
endfacet
facet normal -0.924906088229291 -1.16512744714797e-013 0.380195644315387
outer loop
vertex -0.541085327792909 76.0000000000001 2.09485373757078
vertex 0.418182499767123 14.2500000000005 4.42847503810738
vertex 0.912071129344901 15.0000000000005 5.62996329088932
endloop
endfacet
facet normal -0.924906088229291 -1.16512744714797e-013 0.380195644315387
outer loop
vertex -0.541085327792909 76.0000000000001 2.09485373757078
vertex 0.912071129344901 15.0000000000005 5.62996329088932
vertex 0.418182499761096 61.7500000000006 4.42847503810728
endloop
endfacet
facet normal -0.924906088229291 -1.16512744714797e-013 0.380195644315387
outer loop
vertex 0.418182499761096 61.7500000000006 4.42847503810728
vertex 0.912071129344901 15.0000000000005 5.62996329088932
vertex 0.912071129339079 61.0000000000009 5.62996329088925
endloop
endfacet
facet normal -0.924906088229291 -1.16512744714797e-013 0.380195644315387
outer loop
vertex -0.541085327792909 76.0000000000001 2.09485373757078
vertex 0.418182499761096 61.7500000000006 4.42847503810728
vertex 0.418182499760889 63.2500000000003 4.42847503810723
endloop
endfacet
facet normal -0.924906088229291 -1.16512744714797e-013 0.380195644315387
outer loop
vertex -0.541085327792909 76.0000000000001 2.09485373757078
vertex 0.418182499760889 63.2500000000003 4.42847503810723
vertex 0.912071129338664 64.0000000000003 5.62996329088916
endloop
endfacet
facet normal -0.924906088229291 -1.16512744714797e-013 0.380195644315387
outer loop
vertex -0.541085327792909 76.0000000000001 2.09485373757078
vertex 0.912071129338664 64.0000000000003 5.62996329088916
vertex 2.05265806228324 76.0000000000004 8.40468155557702
endloop
endfacet
facet normal -1.01527399886865e-014 -1.0 2.86928076685953e-014
outer loop
vertex -156.530197998985 1.85996817440014e-012 2.09485373757128
vertex -0.541085327783277 2.20108559617094e-013 0.094853737571283
vertex -0.541085327783301 2.76251272383513e-013 2.09485373757128
endloop
endfacet
facet normal -1.01527399886865e-014 -1.0 2.86928076685953e-014
outer loop
vertex -0.541085327783277 2.20108559617094e-013 0.094853737571283
vertex -156.530197998985 1.85996817440014e-012 2.09485373757128
vertex -156.530197998985 1.80382546163372e-012 0.0948537375712816
endloop
endfacet
facet normal -1.07136521876328e-014 2.86928076685954e-014 1.0
outer loop
vertex -0.541085327792909 76.0000000000001 2.09485373757078
vertex -156.530197998985 1.85996817440014e-012 2.09485373757128
vertex -0.541085327783301 2.76251272383513e-013 2.09485373757128
endloop
endfacet
facet normal -1.07136521876328e-014 2.86928076685954e-014 1.0
outer loop
vertex -156.530197998985 1.85996817440014e-012 2.09485373757128
vertex -0.541085327792909 76.0000000000001 2.09485373757078
vertex -156.530197998984 76.0000000000017 2.09485373756679
endloop
endfacet
facet normal -7.82707232360735e-015 3.75112518755476e-014 1.0
outer loop
vertex 0.799168268923309 76.0000000000002 0.0948537375677257
vertex -0.541085327783277 2.20108559617094e-013 0.094853737571283
vertex 0.799168268927069 2.08536554721129e-013 0.0948537375712802
endloop
endfacet
facet normal -7.82707232360735e-015 3.75112518755476e-014 1.0
outer loop
vertex -0.541085327783277 2.20108559617094e-013 0.094853737571283
vertex 0.799168268923309 76.0000000000002 0.0948537375677257
vertex -156.530197998984 76.0000000000017 0.0948537375667922
endloop
endfacet
facet normal -7.82707232360735e-015 3.75112518755476e-014 1.0
outer loop
vertex -0.541085327783277 2.20108559617094e-013 0.094853737571283
vertex -156.530197998984 76.0000000000017 0.0948537375667922
vertex -156.530197998985 1.80382546163372e-012 0.0948537375712816
endloop
endfacet
facet normal 0.924906088228841 2.52032105779948e-015 -0.38019564431648
outer loop
vertex 0.799168268923309 76.0000000000002 0.0948537375677257
vertex 1.62129637285938 4.09859046865866e-013 2.09485373757127
vertex 0.799168268927069 2.08536554721129e-013 0.0948537375712802
endloop
endfacet
facet normal 0.924906088228841 2.52032105779948e-015 -0.38019564431648
outer loop
vertex 1.62129637285938 4.09859046865866e-013 2.09485373757127
vertex 0.799168268923309 76.0000000000002 0.0948537375677257
vertex 1.62129637285929 76.0000000000004 2.09485373756648
endloop
endfacet
facet normal 9.33900301754164e-014 -1.0 4.04869005750953e-015
outer loop
vertex 2.05265806229303 4.80072098634812e-013 8.40468155557722
vertex 1.62129637285938 4.09859046865866e-013 2.09485373757127
vertex 3.90247023875161 7.18084642754469e-013 7.64429026694644
endloop
endfacet
facet normal 9.33900301754164e-014 -1.0 4.04869005750953e-015
outer loop
vertex 1.62129637285938 4.09859046865866e-013 2.09485373757127
vertex 2.05265806229303 4.80072098634812e-013 8.40468155557722
vertex -0.541085327783301 2.76251272383513e-013 2.09485373757128
endloop
endfacet
facet normal 0.380195644315386 5.13709326481014e-014 0.924906088229291
outer loop
vertex 3.90247023874182 76.0000000000007 7.64429026694625
vertex 2.05265806229303 4.80072098634812e-013 8.40468155557722
vertex 3.90247023875161 7.18084642754469e-013 7.64429026694644
endloop
endfacet
facet normal 0.380195644315386 5.13709326481014e-014 0.924906088229291
outer loop
vertex 2.05265806229303 4.80072098634812e-013 8.40468155557722
vertex 3.90247023874182 76.0000000000007 7.64429026694625
vertex 2.05265806228324 76.0000000000004 8.40468155557702
endloop
endfacet
facet normal -8.28448420975292e-013 -3.05134916884339e-014 -1.0
outer loop
vertex -0.541085327783301 2.76251272383513e-013 2.09485373757128
vertex 1.62129637285929 76.0000000000004 2.09485373756648
vertex 1.62129637285938 4.09859046865866e-013 2.09485373757127
endloop
endfacet
facet normal -8.28448420975292e-013 -3.05134916884339e-014 -1.0
outer loop
vertex 1.62129637285929 76.0000000000004 2.09485373756648
vertex -0.541085327783301 2.76251272383513e-013 2.09485373757128
vertex -0.541085327792909 76.0000000000001 2.09485373757078
endloop
endfacet
facet normal 4.22426176716891e-014 -1.0 5.56840904348987e-014
outer loop
vertex -0.541085327783301 2.76251272383513e-013 2.09485373757128
vertex 0.799168268927069 2.08536554721129e-013 0.0948537375712802
vertex 1.62129637285938 4.09859046865866e-013 2.09485373757127
endloop
endfacet
facet normal 4.22426176716891e-014 -1.0 5.56840904348987e-014
outer loop
vertex 0.799168268927069 2.08536554721129e-013 0.0948537375712802
vertex -0.541085327783301 2.76251272383513e-013 2.09485373757128
vertex -0.541085327783277 2.20108559617094e-013 0.094853737571283
endloop
endfacet
facet normal -9.52691291743899e-015 -1.0 3.21044131033091e-014
outer loop
vertex -0.541085327792909 76.0000000000001 2.09485373757078
vertex 0.799168268923309 76.0000000000002 0.0948537375677257
vertex 1.62129637285929 76.0000000000004 2.09485373756648
endloop
endfacet
facet normal -9.52691291743899e-015 -1.0 3.21044131033091e-014
outer loop
vertex 0.799168268923309 76.0000000000002 0.0948537375677257
vertex -0.541085327792909 76.0000000000001 2.09485373757078
vertex -156.530197998984 76.0000000000017 2.09485373756679
endloop
endfacet
facet normal -9.52691291743899e-015 -1.0 3.21044131033091e-014
outer loop
vertex 0.799168268923309 76.0000000000002 0.0948537375677257
vertex -156.530197998984 76.0000000000017 2.09485373756679
vertex -156.530197998984 76.0000000000017 0.0948537375667922
endloop
endfacet
facet normal -1.16559609560973e-013 1.0 -7.62831695003222e-015
outer loop
vertex 1.62129637285929 76.0000000000004 2.09485373756648
vertex 2.05265806228324 76.0000000000004 8.40468155557702
vertex 3.90247023874182 76.0000000000007 7.64429026694625
endloop
endfacet
facet normal -1.16559609560973e-013 1.0 -7.62831695003222e-015
outer loop
vertex 2.05265806228324 76.0000000000004 8.40468155557702
vertex 1.62129637285929 76.0000000000004 2.09485373756648
vertex -0.541085327792909 76.0000000000001 2.09485373757078
endloop
endfacet
facet normal -0.190097822157813 0.866025403784398 -0.462453044114672
outer loop
vertex 2.76188330580444 12.0000000000013 4.86957200225842
vertex 1.4059597589231 12.750000000001 6.83145154367135
vertex 3.25577193538222 12.7500000000013 6.07106025504036
endloop
endfacet
facet normal -0.190097822157813 0.866025403784398 -0.462453044114672
outer loop
vertex 1.4059597589231 12.750000000001 6.83145154367135
vertex 2.76188330580444 12.0000000000013 4.86957200225842
vertex 0.912071129345318 12.000000000001 5.62996329088941
endloop
endfacet
facet normal -0.380195644315386 -8.14505751286192e-014 -0.924906088229291
outer loop
vertex 1.4059597589231 12.750000000001 6.83145154367135
vertex 3.25577193538201 14.250000000001 6.07106025504031
vertex 3.25577193538222 12.7500000000013 6.07106025504036
endloop
endfacet
facet normal -0.380195644315386 -8.14505751286192e-014 -0.924906088229291
outer loop
vertex 3.25577193538201 14.250000000001 6.07106025504031
vertex 1.4059597589231 12.750000000001 6.83145154367135
vertex 1.40595975892289 14.2500000000007 6.8314515436713
endloop
endfacet
facet normal -0.190097822157573 -0.86602540378448 -0.462453044114618
outer loop
vertex 1.40595975892289 14.2500000000007 6.8314515436713
vertex 2.76188330580402 15.0000000000007 4.86957200225833
vertex 3.25577193538201 14.250000000001 6.07106025504031
endloop
endfacet
facet normal -0.190097822157573 -0.86602540378448 -0.462453044114618
outer loop
vertex 2.76188330580402 15.0000000000007 4.86957200225833
vertex 1.40595975892289 14.2500000000007 6.8314515436713
vertex 0.912071129344901 15.0000000000005 5.62996329088932
endloop
endfacet
facet normal 0.190097822157827 -0.866025403784401 0.462453044114661
outer loop
vertex 0.912071129344901 15.0000000000005 5.62996329088932
vertex 2.26799467622695 14.2500000000006 3.66808374947581
vertex 2.76188330580402 15.0000000000007 4.86957200225833
endloop
endfacet
facet normal 0.190097822157827 -0.866025403784401 0.462453044114661
outer loop
vertex 2.26799467622695 14.2500000000006 3.66808374947581
vertex 0.912071129344901 15.0000000000005 5.62996329088932
vertex 0.418182499767123 14.2500000000005 4.42847503810738
endloop
endfacet
facet normal 0.380195644315518 6.64107538883663e-014 0.924906088229237
outer loop
vertex 2.26799467622695 14.2500000000006 3.66808374947581
vertex 0.41818249976733 12.7500000000008 4.42847503810743
vertex 2.26799467622695 12.7500000000007 3.6680837494759
endloop
endfacet
facet normal 0.380195644315518 6.64107538883663e-014 0.924906088229237
outer loop
vertex 0.41818249976733 12.7500000000008 4.42847503810743
vertex 2.26799467622695 14.2500000000006 3.66808374947581
vertex 0.418182499767123 14.2500000000005 4.42847503810738
endloop
endfacet
facet normal 0.190097822157621 0.866025403784566 0.462453044114436
outer loop
vertex 2.26799467622695 12.7500000000007 3.6680837494759
vertex 0.912071129345318 12.000000000001 5.62996329088941
vertex 2.76188330580444 12.0000000000013 4.86957200225842
endloop
endfacet
facet normal 0.190097822157621 0.866025403784566 0.462453044114436
outer loop
vertex 0.912071129345318 12.000000000001 5.62996329088941
vertex 2.26799467622695 12.7500000000007 3.6680837494759
vertex 0.41818249976733 12.7500000000008 4.42847503810743
endloop
endfacet
facet normal -0.380195644315365 -7.14240276351387e-014 -0.9249060882293
outer loop
vertex 1.40595975891686 61.7500000000009 6.83145154367118
vertex 3.90320619713573 63.250000000001 5.80492330401959
vertex 3.90320619713594 61.7500000000013 5.80492330401964
endloop
endfacet
facet normal -0.380195644315365 -7.14240276351387e-014 -0.9249060882293
outer loop
vertex 3.90320619713573 63.250000000001 5.80492330401959
vertex 1.40595975891686 61.7500000000009 6.83145154367118
vertex 1.40595975891665 63.2500000000006 6.83145154367113
endloop
endfacet
facet normal -0.19009782215756 -0.866025403784471 -0.46245304411464
outer loop
vertex 1.40595975891665 63.2500000000006 6.83145154367113
vertex 3.40931756755775 64.0000000000007 4.60343505123762
vertex 3.90320619713573 63.250000000001 5.80492330401959
endloop
endfacet
facet normal -0.19009782215756 -0.866025403784471 -0.46245304411464
outer loop
vertex 3.40931756755775 64.0000000000007 4.60343505123762
vertex 1.40595975891665 63.2500000000006 6.83145154367113
vertex 0.912071129338664 64.0000000000003 5.62996329088916
endloop
endfacet
facet normal 0.190097822157837 -0.866025403784396 0.462453044114667
outer loop
vertex 0.912071129338664 64.0000000000003 5.62996329088916
vertex 2.91542893797998 63.2500000000007 3.40194679845569
vertex 3.40931756755775 64.0000000000007 4.60343505123762
endloop
endfacet
facet normal 0.190097822157837 -0.866025403784396 0.462453044114667
outer loop
vertex 2.91542893797998 63.2500000000007 3.40194679845569
vertex 0.912071129338664 64.0000000000003 5.62996329088916
vertex 0.418182499760889 63.2500000000003 4.42847503810723
endloop
endfacet
facet normal 0.380195644315416 7.39306645084558e-014 0.924906088229278
outer loop
vertex 2.91542893797998 63.2500000000007 3.40194679845569
vertex 0.418182499761096 61.7500000000006 4.42847503810728
vertex 2.91542893798018 61.750000000001 3.40194679845574
endloop
endfacet
facet normal 0.380195644315416 7.39306645084558e-014 0.924906088229278
outer loop
vertex 0.418182499761096 61.7500000000006 4.42847503810728
vertex 2.91542893797998 63.2500000000007 3.40194679845569
vertex 0.418182499760889 63.2500000000003 4.42847503810723
endloop
endfacet
facet normal 0.190097822157539 0.866025403784542 0.462453044114517
outer loop
vertex 2.91542893798018 61.750000000001 3.40194679845574
vertex 0.912071129339079 61.0000000000009 5.62996329088925
vertex 3.40931756755817 61.0000000000013 4.60343505123771
endloop
endfacet
facet normal 0.190097822157539 0.866025403784542 0.462453044114517
outer loop
vertex 0.912071129339079 61.0000000000009 5.62996329088925
vertex 2.91542893798018 61.750000000001 3.40194679845574
vertex 0.418182499761096 61.7500000000006 4.42847503810728
endloop
endfacet
facet normal -0.190097822157769 0.866025403784455 -0.462453044114584
outer loop
vertex 3.40931756755817 61.0000000000013 4.60343505123771
vertex 1.40595975891686 61.7500000000009 6.83145154367118
vertex 3.90320619713594 61.7500000000013 5.80492330401964
endloop
endfacet
facet normal -0.190097822157769 0.866025403784455 -0.462453044114584
outer loop
vertex 1.40595975891686 61.7500000000009 6.83145154367118
vertex 3.40931756755817 61.0000000000013 4.60343505123771
vertex 0.912071129339079 61.0000000000009 5.62996329088925
endloop
endfacet
endsolid untitled
